# Blender 3.2.2
# www.blender.org
mtllib button-dpad.mtl
o Plane011
v -0.013191 -0.004118 -0.025175
v -0.012749 -0.003479 -0.022710
v -0.007416 -0.003542 -0.022646
v -0.004725 0.004579 -0.025161
v -0.003152 -0.000713 -0.024579
v -0.012985 -0.000129 -0.022515
v -0.013199 -0.000299 -0.022696
v -0.012392 0.004547 -0.022673
v -0.003189 0.001754 -0.024606
v -0.013106 0.002022 -0.022695
v -0.005464 0.000457 -0.023346
v -0.005575 0.004494 -0.023083
v -0.005584 -0.003639 -0.023065
v -0.003648 -0.001816 -0.024679
v -0.002069 -0.000167 -0.025186
v -0.007088 0.000450 -0.022778
v -0.005172 -0.004244 -0.025160
v -0.001954 0.000815 -0.025199
v -0.013837 0.001097 -0.025163
v -0.013680 -0.001714 -0.025162
v -0.006943 0.004552 -0.022818
v -0.012376 -0.003321 -0.022479
v -0.007324 0.004327 -0.022626
v -0.001861 0.000320 -0.025190
v -0.005293 0.005107 -0.025163
v -0.013188 0.004977 -0.025175
v -0.012500 -0.003679 -0.022666
v -0.005735 -0.003778 -0.023163
v -0.012749 0.004394 -0.022771
v -0.012530 0.004169 -0.022509
vn 0.4972 -0.4400 0.7478
vn 0.5585 -0.1562 0.8146
vn 0.3965 0.0004 0.9180
vn 0.3809 0.0037 0.9246
vn 0.0961 -0.4863 0.8685
vn 0.4349 0.5476 0.7148
vn 0.4832 -0.0972 0.8701
vn 0.6674 0.3072 0.6784
vn 0.1125 0.2917 0.9499
vn 0.1038 0.7783 0.6192
vn -0.1917 -0.2112 0.9585
vn 0.4560 -0.8343 0.3098
vn 0.7402 -0.4723 0.4785
vn 0.7300 0.5892 0.3463
vn 0.4190 0.0529 0.9064
vn -0.0113 0.0146 0.9998
vn 0.3653 0.8864 0.2845
vn -0.1785 0.7719 0.6102
vn -0.9704 0.0524 0.2357
vn -0.7244 0.4893 0.4856
vn -0.6390 0.7261 0.2538
vn -0.8415 -0.0536 0.5375
vn -0.7921 0.0871 0.6042
vn -0.3273 0.2215 0.9186
vn -0.9632 -0.1260 0.2374
vn -0.6261 -0.7367 0.2555
vn -0.7338 -0.3687 0.5706
vn -0.3776 -0.0059 0.9260
vn -0.2763 -0.7501 0.6009
vn 0.2198 -0.8592 0.4620
vt 0.112341 0.706963
vt 0.352174 0.691394
vt 0.184118 0.717652
vt 0.280644 0.704692
vt 0.533681 0.588827
vt 0.477508 0.457293
vt 0.278117 0.827742
vt 0.298517 0.627997
vt 0.768853 0.837688
vt 0.436290 0.598706
vt 0.530093 0.677164
vt 0.378530 0.378153
vt 0.180710 0.794076
vt 0.523971 0.668924
vt 0.546514 0.808801
vt 0.366715 0.632657
vt 0.179180 0.860135
vt 0.527572 0.749387
vt 0.392042 0.547917
vt 0.281961 0.574103
vt 0.750952 0.811177
vt 0.489568 0.511110
vt 0.296228 0.921612
vt 0.284542 0.891987
vt 0.466161 0.587828
vt 0.325788 0.950458
vt 0.352174 0.982338
vt 0.425195 0.652957
vt 0.383077 0.507674
vt 0.352088 0.927250
vt 0.397555 0.663697
vt 0.107531 0.833784
vt 0.108394 0.761030
vt 0.276178 0.526133
vt 0.709594 0.807017
vt 0.538417 0.594992
vt 0.481236 0.355535
vt 0.284669 0.522478
vt 0.623054 0.799438
vt 0.410800 0.661157
vt 0.761364 0.845434
vt 0.112103 0.938751
vt 0.527740 0.847868
vt 0.278989 0.711269
vt 0.538893 0.583364
vt 0.493751 0.351568
vt 0.293232 0.911518
vt 0.181857 0.922599
vt 0.537258 0.806406
vt 0.543481 0.796347
vt 0.287978 0.414621
s 1
usemtl dpad
f 13/22/1 5/10/2 11/19/3
f 13/22/1 11/19/3 16/29/4
f 16/29/4 3/6/5 13/22/1
f 12/20/6 15/28/7 9/16/8
f 15/28/7 12/20/6 5/10/2
f 12/20/6 11/19/3 5/10/2
f 23/38/9 12/20/6 21/34/10
f 11/19/3 12/20/6 23/38/9
f 23/38/9 16/29/4 11/19/3
f 16/29/4 23/38/9 3/6/5
f 22/37/11 3/6/5 23/38/9
f 17/30/12 15/27/7 14/26/13
f 15/28/7 5/10/2 14/25/13
f 5/10/2 13/22/1 14/25/13
f 14/26/13 13/23/1 17/30/12
f 4/8/14 9/16/8 18/31/15
f 9/16/8 4/8/14 12/20/6
f 15/28/7 18/31/15 9/16/8
f 15/28/7 24/40/16 18/31/15
f 4/9/14 25/41/17 12/21/6
f 12/21/6 25/41/17 21/35/10
f 8/15/18 21/35/10 25/41/17
f 19/32/19 29/48/20 26/42/21
f 7/13/22 10/17/23 19/32/19
f 29/49/20 10/18/23 30/50/24
f 10/17/23 29/48/20 19/32/19
f 20/33/25 7/13/22 19/32/19
f 20/33/25 1/1/26 2/3/27
f 2/5/27 6/11/28 7/14/22
f 2/3/27 7/13/22 20/33/25
f 17/30/12 27/44/29 1/2/26
f 27/44/29 28/47/30 3/7/5
f 27/44/29 17/30/12 28/47/30
f 27/44/29 2/4/27 1/2/26
f 13/23/1 28/47/30 17/30/12
f 2/5/27 27/45/29 22/36/11
f 27/46/29 3/6/5 22/37/11
f 22/36/11 6/11/28 2/5/27
f 23/39/9 8/15/18 30/50/24
f 23/38/9 30/51/24 22/37/11
f 8/15/18 29/49/20 30/50/24
f 10/18/23 6/11/28 30/50/24
f 6/11/28 10/18/23 7/14/22
f 6/12/28 22/37/11 30/51/24
f 25/41/17 26/43/21 8/15/18
f 8/15/18 26/43/21 29/49/20
f 21/35/10 8/15/18 23/39/9
f 13/24/1 3/7/5 28/47/30
