# Blender 3.2.2
# www.blender.org
mtllib button-big.mtl
o Cylinder001
v -0.007338 0.000356 0.004945
v -0.016089 0.005109 0.004970
v -0.012313 -0.005653 0.005090
v -0.009551 0.004498 -0.000099
v -0.012996 0.005973 0.000024
v -0.015591 -0.005532 0.004638
v -0.008969 0.003886 0.005051
v -0.018867 0.001429 0.005025
v -0.018450 -0.002591 0.005024
v -0.008651 -0.003633 0.004992
v -0.008671 -0.003830 -0.000085
v -0.011810 -0.005603 -0.000108
v -0.018971 -0.001208 -0.000104
v -0.018272 0.002860 -0.000096
v -0.016046 0.004940 -0.000187
v -0.007365 0.000935 -0.000076
v -0.016085 -0.005170 -0.000090
v -0.012211 0.005794 0.004934
vn -0.3736 0.6308 -0.6801
vn 0.7693 0.1109 -0.6291
vn 0.6088 -0.4929 -0.6216
vn 0.1807 -0.7437 -0.6437
vn -0.3828 -0.6663 -0.6400
vn -0.7500 -0.1737 -0.6382
vn -0.6836 0.3726 -0.6275
vn 0.0381 0.8123 -0.5819
vn 0.4972 0.5786 -0.6465
vn 0.1526 -0.7338 0.6620
vn 0.5588 0.5053 0.6576
vn 0.1387 0.7657 0.6280
vn -0.3971 0.6585 0.6393
vn -0.7336 0.2064 0.6475
vn -0.6851 -0.3439 0.6422
vn -0.3501 -0.7923 0.4997
vn 0.6056 -0.4854 0.6306
vn 0.7864 0.0310 0.6169
vt 0.613436 0.967014
vt 0.993535 0.371337
vt 0.087435 0.964702
vt 0.812575 0.471800
vt 0.431668 0.968945
vt 0.875388 0.254759
vt 0.457289 0.281015
vt 0.715703 0.867109
vt 0.394323 0.247623
vt 0.779814 0.865861
vt 0.019467 0.869743
vt 0.361666 0.962334
vt 0.701985 0.966966
vt 0.973501 0.435820
vt 0.185585 0.966676
vt 0.761655 0.399696
vt 0.276623 0.965311
vt 0.786952 0.287007
vt 0.524571 0.965795
vt 0.966094 0.295087
vt 0.473686 0.436221
vt 0.522604 0.869443
vt 0.414058 0.482784
vt 0.442315 0.866793
vt 0.261965 0.390408
vt 0.243556 0.869176
vt 0.273583 0.305494
vt 0.152658 0.868176
vt 0.344710 0.268556
vt 0.087287 0.868194
vt 0.490947 0.351892
vt 0.628536 0.869141
vt 0.305921 0.465953
vt 0.346662 0.868380
vt 0.774567 0.964493
vt 0.011418 0.964102
vt 0.881938 0.489156
s 1
usemtl button
f 15/29/1 16/31/2 11/21/3
f 15/29/1 11/21/3 12/23/4
f 17/33/5 15/29/1 12/23/4
f 13/25/6 15/29/1 17/33/5
f 14/27/7 15/29/1 13/25/6
f 15/29/1 5/9/8 4/7/9
f 16/31/2 15/29/1 4/7/9
f 12/24/4 11/22/3 3/5/10
f 16/32/2 4/8/9 7/13/11
f 4/8/9 5/10/8 18/35/12
f 5/11/8 15/30/1 2/3/13
f 14/28/7 13/26/6 8/15/14
f 13/26/6 17/34/5 9/17/15
f 9/17/15 17/34/5 6/12/16
f 12/24/4 6/12/16 17/34/5
f 3/5/10 11/22/3 10/19/17
f 11/22/3 16/32/2 1/1/18
f 1/1/18 10/19/17 11/22/3
f 1/1/18 16/32/2 7/13/11
f 18/35/12 7/13/11 4/8/9
f 2/3/13 18/36/12 5/11/8
f 15/30/1 14/28/7 2/3/13
f 8/15/14 2/3/13 14/28/7
f 9/17/15 8/15/14 13/26/6
f 3/5/10 6/12/16 12/24/4
f 9/17/15 6/12/16 3/5/10
f 7/14/11 2/4/13 3/6/10
f 2/4/13 7/14/11 18/37/12
f 2/4/13 8/16/14 3/6/10
f 8/16/14 9/18/15 3/6/10
f 10/20/17 7/14/11 3/6/10
f 7/14/11 10/20/17 1/2/18
