# Blender 3.2.2
# www.blender.org
mtllib button.mtl
o button
v -0.003711 0.003060 0.000104
v -0.001108 0.004702 0.002321
v 0.000931 -0.004737 0.002328
v 0.003614 -0.003259 0.002319
v -0.004506 -0.001653 0.000099
v -0.003658 -0.003087 0.000084
v -0.002382 -0.004152 0.000074
v -0.000802 -0.004722 0.000103
v 0.003717 -0.003070 0.000116
v 0.004783 0.000014 0.000091
v 0.001633 0.004573 0.002295
v 0.002408 0.004109 0.000062
v -0.004800 -0.000011 0.000089
v 0.004500 -0.001628 0.000082
v 0.002371 -0.004133 0.000090
v 0.000847 -0.004724 0.000085
v -0.004501 0.001598 0.000090
v -0.002349 0.004189 0.000111
v 0.000121 0.004820 0.000108
v 0.004322 0.002148 0.000094
v 0.004357 0.002231 0.002343
v -0.003190 0.003588 0.002296
v -0.004647 0.001429 0.002354
v -0.004451 -0.001883 0.002328
v -0.002254 -0.004319 0.002315
v 0.004776 -0.000616 0.002328
vn 0.6983 -0.2564 -0.6683
vn 0.4056 0.6290 -0.6632
vn 0.7478 0.0254 -0.6634
vn 0.5940 -0.4907 -0.6375
vn 0.3640 -0.6469 -0.6701
vn 0.1278 -0.7153 -0.6870
vn -0.1158 -0.7444 -0.6576
vn -0.3655 -0.6301 -0.6851
vn -0.5724 -0.4859 -0.6605
vn -0.6997 -0.2486 -0.6698
vn -0.7533 -0.0132 -0.6575
vn -0.6840 0.2503 -0.6852
vn -0.5824 0.4753 -0.6595
vn -0.3501 0.6646 -0.6601
vn 0.0130 0.7618 -0.6477
vn 0.6707 0.3536 -0.6520
vn 0.6741 0.3693 0.6397
vn 0.7445 -0.0979 0.6604
vn 0.2814 0.7160 0.6389
vn -0.1669 0.7342 0.6581
vn -0.5091 0.5702 0.6447
vn -0.7251 0.2102 0.6558
vn -0.6941 -0.2956 0.6564
vn -0.3549 -0.6752 0.6466
vn 0.1441 -0.7385 0.6587
vn 0.5605 -0.5117 0.6512
vt 0.030323 0.285484
vt 0.374426 0.003263
vt 0.296995 0.058423
vt 0.092528 0.230542
vt 0.670066 0.056904
vt 0.148652 0.007843
vt 0.746401 0.056690
vt 0.209929 0.046659
vt 0.010146 0.400160
vt 0.497711 0.003979
vt 0.031220 0.435985
vt 0.541189 0.003669
vt 0.061917 0.461999
vt 0.581222 0.003010
vt 0.099611 0.476023
vt 0.624602 0.005055
vt 0.209682 0.436340
vt 0.747948 0.004615
vt 0.237502 0.360962
vt 0.831440 0.004066
vt 0.976276 0.058468
vt 0.251907 0.058467
vt 0.160926 0.228125
vt 0.177131 0.262696
vt 0.964892 0.003134
vt 0.003247 0.361162
vt 0.456674 0.003444
vt 0.230037 0.401248
vt 0.789307 0.003798
vt 0.176830 0.457913
vt 0.715577 0.002705
vt 0.140090 0.476235
vt 0.664354 0.003883
vt 0.013188 0.322736
vt 0.420838 0.004085
vt 0.062189 0.259449
vt 0.330460 0.004043
vt 0.124698 0.245403
vt 0.994334 0.004943
vt 0.265702 0.003996
vt 0.224090 0.310278
vt 0.885119 0.003745
vt 0.887484 0.058105
vt 0.223280 0.166457
vt 0.353603 0.056811
vt 0.046462 0.209611
vt 0.418775 0.057465
vt 0.013841 0.156512
vt 0.502131 0.058884
vt 0.015153 0.075562
vt 0.584303 0.057828
vt 0.067760 0.018396
vt 0.810927 0.058611
vt 0.234082 0.103170
s 1
usemtl homebutton
f 14/28/1 12/24/2 10/19/3
f 14/28/1 9/17/4 15/30/5
f 15/30/5 12/24/2 14/28/1
f 16/32/6 8/15/7 15/30/5
f 8/15/7 12/24/2 15/30/5
f 8/15/7 7/13/8 12/24/2
f 6/11/9 12/24/2 7/13/8
f 5/9/10 12/24/2 6/11/9
f 13/26/11 17/34/12 12/24/2
f 5/9/10 13/26/11 12/24/2
f 1/1/13 18/36/14 12/24/2
f 17/34/12 1/1/13 12/24/2
f 18/36/14 19/38/15 12/24/2
f 20/41/16 10/19/3 12/24/2
f 10/20/3 20/42/16 21/43/17
f 26/53/18 10/20/3 21/43/17
f 11/21/19 21/43/17 12/25/2
f 20/42/16 12/25/2 21/43/17
f 12/25/2 19/39/15 11/21/19
f 2/3/20 11/22/19 19/40/15
f 19/40/15 18/37/14 2/3/20
f 18/37/14 1/2/13 22/45/21
f 22/45/21 2/3/20 18/37/14
f 1/2/13 17/35/12 23/47/22
f 23/47/22 22/45/21 1/2/13
f 13/27/11 23/47/22 17/35/12
f 13/27/11 5/10/10 24/49/23
f 24/49/23 23/47/22 13/27/11
f 6/12/9 24/49/23 5/10/10
f 24/49/23 6/12/9 25/51/24
f 6/12/9 7/14/8 25/51/24
f 7/14/8 8/16/7 25/51/24
f 25/51/24 8/16/7 3/5/25
f 8/16/7 16/33/6 3/5/25
f 16/33/6 15/31/5 3/5/25
f 4/7/26 3/5/25 15/31/5
f 9/18/4 4/7/26 15/31/5
f 4/7/26 14/29/1 26/53/18
f 9/18/4 14/29/1 4/7/26
f 14/29/1 10/20/3 26/53/18
f 23/48/22 26/54/18 21/44/17
f 21/44/17 11/23/19 23/48/22
f 2/4/20 23/48/22 11/23/19
f 23/48/22 2/4/20 22/46/21
f 23/48/22 24/50/23 25/52/24
f 23/48/22 25/52/24 3/6/25
f 3/6/25 4/8/26 23/48/22
f 4/8/26 26/54/18 23/48/22
