# Blender 3.2.2
# www.blender.org
mtllib controller.mtl
o Circle003
v -0.082804 0.022841 -0.015803
v -0.042482 -0.021881 -0.023569
v -0.074930 0.022060 -0.042764
v -0.078674 -0.007523 -0.010231
v -0.043449 0.002897 -0.002741
v -0.031137 -0.023650 -0.002809
v -0.043201 0.031219 -0.039105
v -0.061975 0.040446 -0.047552
v -0.046534 -0.020648 -0.041216
v -0.038739 0.043490 -0.010451
v -0.016135 -0.011344 -0.003824
v -0.065750 0.049166 -0.020798
v -0.073803 0.043599 -0.020072
v -0.066151 0.049785 -0.021338
v -0.066126 0.044459 -0.042527
v -0.080977 -0.009857 -0.053478
v -0.042473 -0.015729 -0.037769
v -0.036109 0.047654 -0.016845
v -0.039792 0.037451 -0.037720
v -0.036446 0.047392 -0.018546
v -0.046044 0.052172 -0.018012
v -0.047300 0.054315 -0.026230
v -0.046906 0.050146 -0.013144
v -0.024391 -0.023088 -0.023147
v -0.065942 0.049814 -0.022586
v -0.056245 0.053241 -0.022303
v -0.046874 0.052773 -0.022372
v -0.067168 0.050471 -0.012564
v -0.067490 0.051514 -0.020196
v -0.066284 0.045256 -0.037757
v -0.066560 0.038320 -0.032230
v -0.066343 0.040449 -0.025004
v -0.061647 0.042883 -0.024435
v -0.052046 0.043877 -0.024286
v -0.047253 0.043317 -0.024425
v -0.047310 0.028611 -0.038509
v -0.019532 0.043279 -0.011291
v -0.080013 0.020793 -0.009054
v -0.049502 -0.033256 -0.019949
v 0.027485 0.013384 -0.005394
v 0.032565 0.008464 -0.001801
v 0.074791 -0.040527 -0.023113
v 0.073655 -0.017657 -0.012270
v 0.084809 -0.033919 -0.021343
v 0.078674 -0.007523 -0.010231
v 0.046809 -0.008332 -0.006500
v 0.028050 -0.019956 -0.003821
v 0.015528 -0.003944 -0.003920
v 0.022717 0.006147 -0.003830
v 0.034650 0.005889 -0.003850
v 0.087216 -0.043600 -0.040912
v 0.056814 -0.046727 -0.040435
v 0.077999 0.034608 -0.019667
v 0.066129 0.049450 -0.019706
v 0.073803 0.043599 -0.020072
v 0.044695 0.054472 -0.019429
v 0.088762 -0.033922 -0.036127
v 0.044627 0.055480 -0.022316
v 0.076870 -0.047276 -0.056257
v 0.081538 0.023490 -0.035696
v 0.078001 0.008995 -0.046856
v 0.031810 -0.020666 -0.031191
v 0.065874 0.017273 -0.046761
v 0.036102 0.048431 -0.028623
v 0.045398 0.052167 -0.011826
v 0.065143 0.048751 -0.013669
v 0.066113 0.049743 -0.017899
v 0.046171 0.051810 -0.020146
v 0.045911 0.052469 -0.020970
v 0.046906 0.050146 -0.013144
v 0.046044 0.052172 -0.018012
v 0.066986 0.051215 -0.027136
v 0.047377 0.037493 -0.041422
v 0.062879 0.029682 -0.038078
v 0.060554 0.028501 -0.038449
v 0.066353 0.040442 -0.025012
v 0.047364 0.028658 -0.038438
v -0.045218 -0.017610 -0.010621
v -0.065069 0.002349 -0.005594
v -0.075735 0.016903 -0.005682
v -0.025732 -0.019853 -0.003892
v -0.012303 -0.000747 -0.006541
v -0.088415 -0.042159 -0.039233
v -0.041329 -0.020246 -0.024488
v -0.074328 -0.008844 -0.056087
v -0.064532 -0.007176 -0.055381
v -0.045084 0.022805 -0.038007
v 0.039851 0.006845 -0.002746
v 0.042033 -0.018886 -0.011106
v 0.048003 -0.029627 -0.017365
v 0.017836 -0.020039 -0.013582
v 0.012908 0.000546 -0.005994
v 0.087959 -0.043649 -0.041066
v 0.037078 0.046093 -0.018956
v 0.072312 -0.056241 -0.049091
v 0.059265 -0.034793 -0.057440
v 0.041906 0.004176 -0.038521
v 0.032850 -0.023474 -0.002694
v 0.043599 -0.020794 -0.014313
v -0.035366 0.010276 -0.005356
v -0.032003 0.028802 -0.005680
v -0.047239 -0.007981 -0.007042
v -0.036508 -0.019531 -0.001772
v -0.069689 -0.055512 -0.037657
v -0.086910 -0.046196 -0.040777
v -0.059086 -0.051145 -0.039216
v -0.059243 -0.034831 -0.057401
v -0.015888 0.005146 -0.002760
v -0.024512 0.010503 -0.002685
v -0.015396 -0.013078 -0.001795
v -0.014252 -0.002519 -0.001810
v -0.019597 0.005389 -0.001779
v -0.030600 0.009008 -0.001721
v -0.042769 -0.012233 -0.001802
v -0.066110 0.049757 -0.017878
v -0.070749 -0.028203 -0.016511
v -0.049297 -0.035576 -0.029265
v -0.035774 0.036484 -0.007314
v -0.015838 -0.018302 -0.010292
v -0.016483 -0.001142 -0.003844
v -0.041682 -0.001572 -0.003825
v -0.023514 0.006306 -0.003823
v -0.034492 0.005952 -0.003866
v -0.011756 -0.009896 -0.007940
v -0.081471 0.028727 -0.019447
v -0.065642 0.048992 -0.018685
v -0.087611 -0.006389 -0.023196
v -0.018466 -0.020886 -0.020902
v -0.072787 0.042969 -0.019618
v -0.080355 0.030855 -0.020244
v -0.024079 -0.021642 -0.022984
v -0.054417 -0.043684 -0.038671
v -0.067382 0.049278 -0.034893
v -0.072701 0.044107 -0.035437
v -0.083990 -0.032270 -0.055523
v -0.070142 -0.039235 -0.060821
v -0.041656 -0.020825 -0.029714
v -0.055906 -0.044690 -0.045403
v -0.052455 -0.034222 -0.047711
v -0.018228 -0.020723 -0.029487
v -0.058993 0.016253 -0.045945
v -0.063876 -0.030689 -0.061035
v -0.056650 0.027109 -0.043672
v -0.040413 0.004508 -0.037898
v -0.065143 0.048751 -0.013669
v -0.037637 0.046854 -0.015295
v -0.045447 0.052144 -0.011799
v -0.046084 0.051776 -0.020092
v -0.034482 -0.022697 -0.029825
v -0.045738 -0.027689 -0.028624
v -0.061360 0.055489 -0.022414
v -0.047429 0.056181 -0.022373
v -0.061570 0.052156 -0.022402
v -0.045674 0.052520 -0.019385
v -0.060544 0.028505 -0.038419
v -0.047157 0.041086 -0.031916
v -0.047035 0.034063 -0.037035
v -0.083533 -0.004510 -0.012672
v 0.067781 0.036857 -0.005823
v 0.038239 -0.018667 -0.001803
v 0.020276 -0.021632 -0.002727
v 0.015694 0.000896 -0.001766
v 0.049372 -0.028324 -0.015771
v 0.079242 -0.053238 -0.037578
v 0.087240 -0.044739 -0.033223
v 0.042574 -0.021822 -0.023723
v 0.049354 -0.035535 -0.028142
v 0.064829 0.001983 -0.005616
v 0.011585 -0.009077 -0.002788
v 0.019292 0.008167 -0.002769
v 0.049558 -0.007374 -0.007479
v 0.079643 0.023303 -0.008880
v 0.073490 0.038147 -0.009706
v 0.078106 -0.048784 -0.029206
v 0.059834 -0.050031 -0.029853
v 0.032334 0.029751 -0.005844
v 0.041495 0.001739 -0.001775
v 0.039949 -0.015035 -0.003870
v 0.016901 -0.020423 -0.020543
v 0.076550 0.039769 -0.018954
v 0.067579 0.051664 -0.018929
v 0.045674 0.052520 -0.019385
v 0.078202 -0.053424 -0.046720
v 0.086449 -0.007598 -0.024368
v 0.041486 -0.019250 -0.024164
v 0.072917 0.042813 -0.019612
v 0.019845 -0.020573 -0.021910
v 0.080152 -0.053213 -0.046341
v 0.067501 0.051502 -0.020194
v 0.036924 0.047193 -0.018896
v 0.066151 -0.051540 -0.054030
v 0.085357 -0.035474 -0.054005
v 0.089029 -0.036855 -0.045331
v 0.082844 -0.009368 -0.051908
v 0.072189 0.044038 -0.036273
v 0.045234 -0.020286 -0.039565
v 0.066459 0.043500 -0.042565
v 0.077731 -0.052831 -0.051800
v 0.049156 -0.001542 -0.043020
v 0.045657 0.022198 -0.038236
v 0.044701 0.054852 -0.018804
v 0.037545 0.047185 -0.015459
v 0.057437 -0.046912 -0.046919
v 0.065632 0.049007 -0.018660
v 0.065753 0.049164 -0.020797
v 0.056195 0.053248 -0.022293
v 0.061132 0.040342 -0.047712
v 0.063720 0.039675 -0.040882
v 0.066368 0.044792 -0.036829
v 0.065945 0.036532 -0.034996
v 0.066604 0.038564 -0.031625
v 0.058678 0.054651 -0.026224
v 0.052046 0.043877 -0.024286
v -0.044096 0.002126 -0.005414
v -0.043243 -0.000598 -0.001823
v -0.078410 -0.054609 -0.046161
v -0.088727 -0.041780 -0.032461
v -0.081525 -0.039276 -0.023297
v -0.039188 -0.020240 -0.002668
v -0.066547 0.020580 -0.045702
v -0.049143 -0.028692 -0.015890
v -0.073766 0.029621 -0.005734
v -0.024454 0.010457 -0.005436
v -0.025618 0.013295 -0.005411
v -0.013420 -0.014348 -0.002693
v -0.072416 -0.056507 -0.047682
v -0.078202 -0.053424 -0.046720
v -0.041486 -0.019250 -0.024164
v -0.087216 -0.043601 -0.040913
v -0.035009 -0.022499 -0.024636
v -0.043028 0.047507 -0.035544
v -0.085046 -0.008734 -0.048353
v 0.042296 -0.015277 -0.037798
v -0.078169 -0.045195 -0.056509
v -0.082618 0.026958 -0.029449
v -0.071376 -0.048347 -0.057426
v -0.089148 -0.032916 -0.044000
v -0.088332 -0.008185 -0.035038
v -0.070550 -0.030789 -0.061954
v -0.046657 0.036447 -0.044504
v -0.036687 0.048470 -0.028592
v 0.038505 0.041508 -0.036377
v -0.049173 0.000622 -0.042902
v -0.056918 0.051113 -0.013375
v -0.080152 -0.053213 -0.046342
v -0.086317 0.001083 -0.023213
v -0.067581 0.051663 -0.018929
v -0.058676 0.054652 -0.026224
v -0.062879 0.029682 -0.038078
v -0.065973 0.036209 -0.035289
v -0.047085 0.038818 -0.034800
v -0.027021 0.013779 -0.004478
v -0.031263 0.030596 -0.005133
v -0.083044 -0.049746 -0.035308
v -0.086321 -0.039051 -0.025401
v -0.060822 -0.050730 -0.030228
v 0.044055 -0.007113 -0.001782
v 0.068023 -0.056123 -0.040183
v 0.074363 -0.055894 -0.047748
v 0.087611 -0.006386 -0.023195
v 0.087012 -0.007707 -0.017836
v 0.044516 -0.014878 -0.008270
v 0.044852 -0.018224 -0.011003
v 0.040542 -0.020616 -0.023545
v 0.077547 0.036610 -0.014936
v 0.083533 -0.004510 -0.012672
v 0.047119 0.046660 -0.009716
v 0.038819 0.043057 -0.010198
v 0.023031 -0.020786 -0.001742
v 0.014147 -0.009847 -0.001824
v 0.032726 -0.021989 -0.024609
v 0.018448 -0.019377 -0.021302
v 0.068428 -0.055578 -0.048720
v 0.057495 -0.048422 -0.042063
v 0.087233 -0.006358 -0.024419
v 0.082459 0.024131 -0.020862
v 0.041431 0.051503 -0.024403
v 0.060725 -0.046926 -0.052585
v 0.053687 -0.034518 -0.049691
v 0.072697 -0.030477 -0.061419
v 0.074328 -0.008844 -0.056087
v 0.064532 -0.007176 -0.055381
v 0.057122 0.018963 -0.044502
v 0.059594 -0.016627 -0.054887
v 0.040052 0.036225 -0.037735
v 0.041699 -0.020871 -0.029564
v 0.023275 -0.022880 -0.029573
v 0.056918 0.051113 -0.013375
v 0.061618 0.052141 -0.022385
v 0.066487 0.049643 -0.021563
v 0.064290 0.041835 -0.045728
v 0.067394 0.048705 -0.036518
v 0.047235 0.051030 -0.036936
v 0.065778 0.052316 -0.026426
v 0.061647 0.042883 -0.024435
v 0.047113 0.043367 -0.024148
v 0.047157 0.041086 -0.031916
v 0.046843 0.038316 -0.035263
v -0.076800 -0.054589 -0.038260
v -0.046475 -0.006418 -0.002736
v -0.043690 -0.015030 -0.002727
v -0.036010 0.009579 -0.002747
v -0.077547 0.036610 -0.014936
v -0.074725 -0.016141 -0.011896
v -0.081137 -0.045668 -0.027779
v -0.067770 0.036841 -0.005813
v -0.052370 0.040915 -0.005652
v -0.024308 -0.021140 -0.001775
v -0.032726 -0.021989 -0.024609
v -0.074388 0.045506 -0.029000
v -0.060343 0.034453 -0.045845
v -0.059596 0.052685 -0.011361
v -0.045894 0.052442 -0.021067
v -0.064090 0.041066 -0.042419
v -0.047397 0.036036 -0.040333
v -0.086324 -0.032510 -0.021913
v 0.075727 0.016927 -0.005676
v 0.089009 -0.034426 -0.030507
v 0.087015 -0.037064 -0.024488
v 0.011524 -0.007990 -0.007616
v 0.032742 0.011102 -0.005346
v 0.052479 0.040944 -0.005655
v 0.014283 -0.015803 -0.009100
v 0.018279 -0.014957 -0.003867
v 0.041778 -0.001740 -0.003821
v 0.079651 -0.053679 -0.045476
v 0.062399 -0.052954 -0.045830
v 0.070905 -0.055454 -0.048743
v 0.044552 -0.025461 -0.027133
v 0.041214 -0.020255 -0.024547
v 0.063705 -0.030447 -0.060907
v 0.039417 -0.020697 -0.031154
v 0.055502 0.031704 -0.044101
v 0.044562 0.028926 -0.038841
v 0.036341 0.044570 -0.034188
v 0.088630 -0.010655 -0.034202
v 0.018305 -0.020516 -0.029507
v 0.082438 0.027632 -0.029375
v 0.067597 0.052183 -0.022671
v 0.062382 0.034083 -0.039343
v 0.032604 0.031690 -0.005333
v 0.064736 -0.051601 -0.030172
v -0.066962 -0.055873 -0.043127
v -0.056112 -0.046380 -0.039578
v -0.044041 -0.016622 -0.009242
v -0.043124 -0.018878 -0.012211
v -0.065428 0.046859 -0.010171
v -0.040111 -0.015028 -0.003832
v -0.040542 -0.020616 -0.023545
v -0.052231 -0.038019 -0.035032
v -0.018598 -0.020390 -0.021323
v -0.042234 -0.018735 -0.035408
v -0.063159 -0.037814 -0.059447
v -0.046932 0.046543 -0.009560
v -0.066550 -0.052364 -0.053002
v 0.073949 -0.056421 -0.041938
v 0.019104 0.008329 -0.005429
v 0.082692 0.024551 -0.016750
v 0.067236 0.050438 -0.012712
v 0.073775 0.029621 -0.005739
v 0.022233 0.007051 -0.001784
v 0.000519 -0.017059 -0.010223
v 0.072536 -0.041296 -0.060214
v 0.081272 -0.029970 -0.057741
v 0.063159 -0.037814 -0.059447
v 0.073623 0.025609 -0.042487
v 0.072862 -0.052547 -0.054580
v 0.062476 0.034943 -0.045493
v 0.067939 -0.031068 -0.061883
v 0.036413 0.047406 -0.018559
v 0.044512 0.035779 -0.041144
v 0.027099 0.013900 -0.004447
v -0.020449 -0.021646 -0.002689
v -0.081613 0.022293 -0.036284
v -0.078383 -0.030001 -0.059210
v -0.081209 0.009604 -0.043414
v -0.087725 -0.039759 -0.049415
v -0.065488 0.039859 -0.044219
v -0.060135 -0.016225 -0.055115
v -0.071709 -0.053746 -0.053404
v -0.045170 0.043574 -0.040827
v 0.046160 -0.008107 -0.002720
v 0.013383 0.001314 -0.002755
v 0.088522 -0.041523 -0.038802
v 0.087702 -0.042659 -0.047482
v 0.074166 0.045755 -0.028961
v 0.047253 0.054304 -0.026425
v 0.019873 0.042928 -0.011089
v -0.011831 -0.002944 -0.002676
v -0.068771 -0.050438 -0.028890
v -0.016651 0.006341 -0.005517
v -0.073961 0.043691 -0.018933
v -0.074792 0.035434 -0.008951
v -0.061837 -0.052444 -0.045192
v -0.031737 -0.023616 -0.024308
v -0.071409 -0.055364 -0.048745
v -0.086449 -0.007547 -0.024349
v -0.064587 -0.053682 -0.047099
v -0.017982 -0.019302 -0.021127
v -0.081003 0.026583 -0.020249
v -0.088341 -0.042859 -0.040609
v -0.088156 -0.016132 -0.028140
v -0.070991 -0.056265 -0.049165
v -0.060533 -0.051899 -0.045016
v -0.044680 -0.023019 -0.025723
v 0.004742 -0.019714 -0.020104
v -0.087588 -0.043067 -0.047629
v -0.061395 -0.049617 -0.051255
v -0.028380 -0.023325 -0.030578
v -0.038646 -0.020681 -0.031298
v -0.037027 0.046071 -0.018939
v -0.037009 0.047208 -0.018914
v -0.036838 0.043113 -0.035515
v -0.078571 -0.051807 -0.052559
v -0.066127 0.049451 -0.019706
v -0.044746 0.054475 -0.019438
v -0.044650 0.054911 -0.018744
v -0.067587 0.052131 -0.022681
v -0.044791 0.054815 -0.022294
v -0.047231 0.051260 -0.036545
v -0.047256 0.040624 -0.047408
v -0.061304 0.037835 -0.041920
v -0.066988 0.051215 -0.027138
v -0.065783 0.052313 -0.026427
v -0.062380 0.034585 -0.039483
v -0.029403 0.016004 -0.005330
v -0.087012 -0.007706 -0.017836
v 0.030777 0.011020 -0.002624
v 0.042786 -0.016831 -0.002724
v 0.059086 -0.051145 -0.039216
v 0.044943 0.000305 -0.002757
v 0.044133 0.002469 -0.005409
v 0.015459 -0.017199 -0.002667
v 0.086756 -0.046153 -0.041391
v 0.082155 0.021156 -0.020849
v 0.023011 -0.022707 -0.022510
v 0.032485 -0.023454 -0.024311
v 0.064376 -0.053307 -0.046948
v 0.044747 -0.022993 -0.025777
v 0.026197 -0.023489 -0.023586
v 0.042364 -0.018359 -0.036039
v 0.086110 -0.007902 -0.045258
v 0.084367 -0.046344 -0.050276
v 0.031076 -0.023134 -0.030846
v 0.060904 0.052372 -0.011670
v 0.046469 0.052615 -0.022233
v 0.060519 0.055629 -0.022431
v 0.043616 0.048633 -0.034686
v 0.044233 0.042582 -0.039866
v 0.061256 0.037683 -0.041697
v 0.047278 0.040539 -0.047442
v 0.035594 0.047535 -0.016958
v 0.029924 0.018296 -0.005235
vn -0.2188 0.2718 0.9372
vn -0.3817 0.1625 0.9099
vn 0.0277 0.3158 0.9484
vn -0.3393 -0.0129 0.9406
vn -0.0895 -0.1371 0.9865
vn -0.5672 0.2656 0.7796
vn -0.2289 0.5544 0.8002
vn -0.1766 -0.0572 0.9826
vn -0.2388 -0.0016 0.9711
vn -0.4684 -0.6724 0.5732
vn -0.0835 -0.8438 0.5300
vn -0.0042 0.0328 0.9995
vn -0.0537 -0.0216 0.9983
vn 0.3924 -0.7370 0.5504
vn 0.7447 -0.3793 0.5491
vn -0.1052 0.0959 0.9898
vn 0.8258 0.1342 0.5478
vn -0.1161 0.0207 0.9930
vn 0.6253 0.5243 0.5780
vn -0.1007 0.1130 0.9885
vn 0.2141 0.7895 0.5753
vn -0.0034 0.0958 0.9954
vn -0.3790 0.7139 0.5888
vn -0.0062 0.0008 1.0000
vn -0.6726 0.5043 0.5416
vn -0.7957 0.0341 0.6047
vn 0.0788 -0.0327 0.9964
vn -0.6836 -0.4045 0.6075
vn -0.1824 -0.3295 0.9264
vn -0.5854 -0.2608 0.7677
vn -0.0576 -0.7163 0.6955
vn -0.0599 -0.5488 0.8338
vn -0.0736 -0.4325 0.8986
vn 0.1999 -0.5238 0.8281
vn -0.1139 -0.8912 -0.4390
vn 0.3116 -0.9500 -0.0213
vn 0.0356 -0.9510 0.3070
vn -0.3398 -0.8884 0.3087
vn -0.5640 -0.7038 -0.4319
vn -0.5772 -0.7504 0.3222
vn -0.8307 -0.4262 -0.3581
vn -0.9172 -0.3355 0.2152
vn -0.9160 0.0272 -0.4003
vn -0.9221 0.1683 -0.3485
vn -0.9282 -0.0078 0.3719
vn 0.3141 0.1322 -0.9402
vn 0.6929 -0.4127 -0.5912
vn 0.7025 -0.7115 -0.0167
vn 0.8516 -0.2444 -0.4638
vn 0.8744 -0.4849 -0.0174
vn 0.8024 -0.5464 -0.2398
vn -0.3571 -0.6752 0.6454
vn -0.6665 -0.4331 0.6068
vn -0.6940 -0.2598 0.6715
vn -0.2274 -0.4863 0.8437
vn -0.3556 -0.2105 0.9106
vn 0.4228 -0.7702 0.4775
vn 0.6598 -0.6115 0.4367
vn -0.9534 0.2125 0.2140
vn -0.8435 0.3366 -0.4187
vn -0.7679 0.1324 0.6267
vn -0.6900 -0.0756 0.7199
vn -0.6817 -0.5789 0.4474
vn 0.0062 -0.7699 -0.6381
vn 0.2712 -0.7942 -0.5438
vn 0.6378 -0.2631 0.7239
vn 0.6199 0.0867 0.7799
vn 0.4119 0.4197 0.8088
vn 0.1555 0.6226 0.7669
vn 0.3776 -0.5801 0.7217
vn -0.0892 0.5345 0.8404
vn -0.5287 0.1849 0.8284
vn -0.4682 -0.2345 0.8519
vn -0.2305 -0.6050 0.7621
vn 0.4829 -0.1299 0.8660
vn 0.5279 0.4136 0.7417
vn -0.0124 -0.8359 -0.5488
vn -0.0408 -0.8969 0.4403
vn -0.8648 0.4319 0.2561
vn -0.7425 0.5200 -0.4222
vn -0.3269 0.8712 0.3663
vn -0.0433 0.9104 -0.4115
vn -0.1598 0.9717 0.1741
vn 0.1849 0.7332 -0.6545
vn 0.4040 0.7716 0.4914
vn -0.6647 0.3890 0.6379
vn -0.2351 0.4092 0.8817
vn 0.1373 0.3838 0.9131
vn 0.2331 0.5589 0.7958
vn 0.1028 0.3636 0.9259
vn 0.4860 -0.8233 0.2932
vn 0.0153 -0.4483 0.8938
vn -0.0556 -0.5000 0.8642
vn -0.3234 0.4896 0.8098
vn -0.2158 -0.8374 -0.5022
vn -0.6205 -0.7511 0.2254
vn 0.1723 -0.2719 0.9468
vn 0.1453 -0.9181 0.3689
vn -0.8008 -0.5437 0.2514
vn -0.4736 -0.8619 0.1809
vn -0.9466 0.2080 -0.2462
vn 0.8161 -0.5505 0.1759
vn 0.8656 -0.4963 0.0663
vn 0.2145 -0.9767 -0.0058
vn -0.9436 0.2247 -0.2433
vn -0.8741 0.4626 -0.1479
vn 0.0498 -0.8740 0.4834
vn 0.1694 -0.9855 -0.0108
vn -0.8077 0.5872 0.0534
vn 0.6516 0.7583 0.0214
vn -0.8449 0.5346 -0.0194
vn -0.0779 0.9285 -0.3631
vn 0.3309 0.9369 0.1123
vn -0.3332 0.9348 0.1228
vn 0.0133 -0.5297 -0.8481
vn 0.0418 -0.9823 0.1825
vn 0.0308 0.8033 0.5948
vn -0.4093 -0.8287 0.3818
vn -0.7221 -0.4651 0.5121
vn -0.6646 -0.2706 0.6965
vn -0.6623 0.0044 0.7492
vn 0.3996 -0.8481 0.3479
vn 0.5060 -0.6851 0.5241
vn 0.5313 -0.6372 0.5583
vn 0.0348 -0.6473 0.7614
vn -0.1733 -0.7552 0.6322
vn 0.0306 -0.7838 0.6203
vn -0.0481 -0.6359 0.7703
vn -0.6974 0.2350 0.6770
vn -0.6604 0.4205 0.6222
vn -0.1074 0.7705 0.6284
vn 0.1555 0.5035 0.8499
vn -0.5148 -0.6447 -0.5651
vn -0.0358 -0.7523 -0.6578
vn -0.8739 -0.3799 -0.3034
vn 0.6428 -0.5683 -0.5138
vn 0.4301 -0.6934 -0.5781
vn 0.8488 -0.4513 -0.2753
vn 0.5438 -0.8317 -0.1120
vn -0.2338 -0.9337 -0.2713
vn 0.0757 -0.7170 -0.6929
vn 0.0964 -0.9734 -0.2080
vn -0.4225 0.8436 0.3314
vn 0.3086 0.9097 -0.2777
vn 0.2689 0.9541 0.1321
vn -0.1450 0.4995 0.8541
vn -0.1179 -0.9725 -0.2008
vn 0.0084 -0.4721 -0.8815
vn -0.0525 -0.2435 -0.9685
vn 0.4431 -0.2970 -0.8458
vn -0.4816 -0.3182 -0.8166
vn -0.8776 -0.1565 -0.4531
vn -0.7212 -0.0149 -0.6926
vn -0.8618 0.2082 -0.4625
vn -0.9911 0.0126 -0.1327
vn -0.9901 0.1187 -0.0754
vn -0.5766 0.2553 -0.7761
vn 0.7045 -0.1474 -0.6943
vn 0.8577 -0.2510 -0.4487
vn 0.8197 -0.1236 -0.5593
vn 0.4391 -0.7201 -0.5372
vn -0.1073 -0.9423 -0.3172
vn -0.8508 0.2835 -0.4424
vn -0.7314 0.5037 -0.4597
vn -0.6829 0.3293 -0.6521
vn -0.9505 0.2925 -0.1043
vn -0.7977 0.5941 -0.1038
vn 0.2163 0.8945 -0.3913
vn 0.1034 0.7670 -0.6333
vn 0.3715 0.0887 -0.9242
vn -0.0862 0.0473 -0.9952
vn -0.4386 0.0291 -0.8982
vn -0.1976 0.2996 -0.9334
vn 0.4291 -0.2307 -0.8733
vn -0.0087 0.0791 -0.9968
vn -0.5582 0.0918 -0.8246
vn -0.0327 -0.1449 -0.9889
vn -0.0788 0.2079 -0.9750
vn -0.1290 0.5477 -0.8267
vn -0.2574 0.3571 -0.8979
vn -0.3042 0.0390 -0.9518
vn 0.2700 0.1222 -0.9551
vn -0.3686 -0.1935 -0.9092
vn 0.1234 0.7339 -0.6679
vn 0.2492 0.2769 -0.9280
vn 0.3046 0.2000 -0.9313
vn 0.3003 -0.1059 -0.9479
vn 0.6000 -0.2771 -0.7505
vn 0.5232 0.1649 -0.8361
vn 0.5574 0.0896 -0.8254
vn 0.2696 -0.0161 -0.9628
vn 0.2753 0.3892 -0.8790
vn 0.6102 -0.2380 -0.7557
vn 0.7786 0.3120 -0.5444
vn 0.5732 0.5017 -0.6479
vn 0.1495 0.5320 -0.8334
vn -0.1648 0.6590 -0.7339
vn 0.0487 0.9967 0.0652
vn 0.2242 0.0171 -0.9744
vn -0.1267 0.9502 0.2849
vn 0.0784 0.8415 0.5345
vn -0.2106 0.5808 -0.7864
vn -0.0206 0.7578 -0.6522
vn 0.7785 0.6276 -0.0058
vn 0.2944 0.7375 -0.6078
vn 0.7805 0.6206 -0.0758
vn -0.8923 0.4493 0.0443
vn -0.8859 0.4630 -0.0277
vn 0.7817 0.6176 0.0866
vn 0.8196 0.5623 0.1098
vn -0.8959 0.1720 0.4097
vn 0.5165 0.3821 0.7663
vn -0.3607 0.1811 0.9149
vn -0.0168 0.7448 -0.6670
vn -0.4517 0.6907 -0.5646
vn 0.1951 0.8517 0.4863
vn -0.0062 0.0283 0.9996
vn -0.2333 0.8100 0.5380
vn -0.0361 0.0059 0.9993
vn -0.4150 0.7315 -0.5410
vn -0.0600 0.5609 -0.8257
vn 0.9695 0.2354 0.0679
vn 0.8356 0.4953 0.2376
vn 0.2577 0.7026 0.6633
vn 0.4830 0.3191 0.8154
vn -0.7691 0.3449 0.5381
vn 0.0863 0.1969 0.9766
vn 0.4356 0.2066 0.8761
vn 0.8770 0.1360 0.4609
vn 0.9966 0.0475 0.0675
vn 0.8447 -0.0288 -0.5344
vn 0.1118 -0.1457 -0.9830
vn -0.0088 -0.1661 -0.9861
vn -0.7676 -0.1070 -0.6320
vn -0.9990 -0.0130 0.0421
vn -0.9998 -0.0014 -0.0217
vn -0.9947 -0.0115 0.1022
vn -0.2743 0.2116 0.9381
vn -0.4567 -0.6957 0.5545
vn 0.2863 -0.4774 0.8307
vn 0.4524 0.0565 0.8900
vn -0.2087 0.1321 0.9690
vn 0.0054 0.6241 0.7813
vn -0.3543 0.8221 0.4456
vn -0.0379 0.2882 0.9568
vn 0.3859 0.1859 0.9036
vn 0.2162 0.2721 0.9377
vn 0.0814 -0.1494 0.9854
vn 0.1565 0.5742 0.8036
vn 0.5335 0.2708 0.8013
vn 0.2333 -0.0749 0.9695
vn 0.1573 -0.8098 0.5652
vn 0.0648 -0.0410 0.9971
vn 0.0305 -0.0652 0.9974
vn -0.3878 -0.7644 0.5151
vn -0.6335 -0.4536 0.6268
vn -0.8382 -0.1243 0.5310
vn 0.0468 -0.0599 0.9971
vn 0.0612 -0.0526 0.9967
vn -0.7650 0.3724 0.5255
vn -0.4432 0.7063 0.5521
vn 0.1116 -0.1765 0.9779
vn -0.0003 0.8401 0.5424
vn 0.0357 -0.0728 0.9967
vn 0.5483 0.7026 0.4536
vn -0.0823 -0.0823 0.9932
vn 0.8232 0.2461 0.5116
vn 0.8053 -0.0742 0.5882
vn -0.0315 0.0352 0.9989
vn 0.6362 -0.4792 0.6046
vn -0.0694 -0.7950 0.6026
vn 0.0953 -0.5045 0.8582
vn -0.1595 -0.5116 0.8443
vn 0.2660 -0.7202 -0.6408
vn 0.1727 -0.9736 0.1495
vn -0.1779 -0.9709 0.1602
vn 0.6731 -0.6208 -0.4019
vn 0.4518 -0.8402 0.3001
vn 0.8008 -0.5261 0.2862
vn 0.7981 -0.3454 -0.4937
vn 0.9342 0.0167 -0.3564
vn 0.9953 -0.0510 0.0828
vn 0.9219 0.1725 -0.3470
vn 0.9247 -0.0101 0.3806
vn -0.5752 -0.7892 -0.2152
vn -0.7109 -0.7024 -0.0346
vn -0.7979 -0.5891 0.1276
vn -0.7832 -0.5534 -0.2836
vn -0.8686 -0.4952 0.0178
vn 0.0002 -0.8285 -0.5600
vn -0.6038 -0.6951 0.3901
vn 0.2816 -0.7128 0.6423
vn 0.7309 -0.3758 0.5697
vn 0.1449 -0.3442 0.9276
vn 0.4458 -0.3533 0.8225
vn 0.3529 -0.2126 0.9112
vn 0.3455 -0.0161 0.9383
vn -0.4782 -0.7418 0.4702
vn -0.6311 -0.5910 0.5025
vn 0.1919 -0.2567 0.9472
vn 0.0683 -0.5693 0.8193
vn 0.9073 0.1323 0.3992
vn 0.9640 0.2635 0.0361
vn 0.6917 -0.0756 0.7183
vn 0.7688 0.1632 0.6183
vn 0.7503 -0.1977 0.6308
vn 0.7501 -0.5099 0.4211
vn 0.3672 -0.8750 0.3155
vn -0.2757 -0.7094 -0.6486
vn 0.0468 -0.7708 -0.6353
vn -0.5637 -0.6608 0.4957
vn -0.6512 -0.2083 0.7298
vn -0.6165 0.1487 0.7732
vn -0.0526 0.6844 0.7272
vn -0.5839 0.3595 0.7279
vn 0.5511 0.4442 0.7064
vn 0.2547 -0.5334 0.8066
vn 0.6016 -0.1027 0.7922
vn -0.2889 -0.4864 0.8246
vn -0.5548 -0.1843 0.8113
vn 0.7696 0.4747 -0.4270
vn 0.8561 0.4224 0.2979
vn 0.0524 0.9121 -0.4067
vn 0.2988 0.8721 0.3874
vn -0.2018 0.7392 -0.6426
vn 0.6407 0.4258 0.6389
vn 0.1973 0.9550 0.2215
vn -0.1421 0.3923 0.9088
vn -0.2119 0.5156 0.8302
vn 0.6168 -0.0576 0.7850
vn -0.0779 -0.8351 0.5446
vn 0.1576 -0.7945 0.5865
vn 0.4102 -0.8932 0.1843
vn 0.8298 -0.4796 0.2854
vn 0.9937 0.1036 -0.0431
vn -0.8783 -0.4663 0.1052
vn -0.2206 -0.9742 -0.0479
vn -0.3925 -0.8201 -0.4164
vn -0.1529 0.6326 -0.7592
vn -0.4494 -0.8921 -0.0468
vn 0.9102 0.3707 -0.1848
vn -0.6429 0.7658 0.0127
vn 0.7059 0.6334 0.3171
vn 0.0883 0.9224 -0.3760
vn 0.8241 0.5664 -0.0105
vn -0.2163 -0.9590 0.1830
vn -0.0716 0.8138 0.5768
vn 0.0142 -0.9885 0.1506
vn 0.4177 -0.8179 0.3957
vn 0.7217 -0.5181 0.4591
vn 0.6368 -0.3279 0.6978
vn 0.7559 -0.0237 0.6542
vn -0.6062 -0.7377 0.2970
vn -0.4881 -0.6406 0.5928
vn -0.0312 -0.6784 0.7340
vn 0.7578 0.1431 0.6366
vn 0.0152 -0.8026 0.5963
vn 0.6708 0.4246 0.6081
vn 0.1218 0.7581 0.6406
vn 0.4948 -0.6998 -0.5153
vn 0.8952 -0.3312 -0.2983
vn -0.3946 -0.6329 -0.6661
vn 0.0559 -0.7708 -0.6346
vn 0.4113 0.8607 0.3001
vn -0.3077 0.9342 0.1803
vn -0.5892 0.8068 -0.0436
vn -0.2552 0.9337 -0.2510
vn -0.5564 -0.8245 -0.1030
vn 0.1376 -0.2888 -0.9475
vn 0.0809 -0.6632 -0.7441
vn -0.4147 -0.2914 -0.8620
vn 0.4368 -0.3883 -0.8115
vn 0.7651 -0.0838 -0.6385
vn 0.7415 -0.4690 -0.4798
vn 0.5601 0.0409 -0.8274
vn 0.9135 0.2005 -0.3541
vn 0.9832 -0.0395 -0.1784
vn 0.6863 0.2507 -0.6828
vn -0.6810 -0.4803 -0.5528
vn -0.7004 -0.1329 -0.7013
vn -0.8082 -0.4986 -0.3133
vn -0.8544 -0.2364 -0.4627
vn -0.8158 -0.1895 -0.5464
vn 0.1102 -0.9549 -0.2756
vn -0.4907 -0.6540 -0.5757
vn 0.8421 0.2915 -0.4538
vn 0.9422 0.3187 -0.1036
vn 0.5232 0.3492 -0.7774
vn 0.7288 0.4790 -0.4893
vn -0.0644 -0.5356 -0.8420
vn 0.7964 0.5952 -0.1071
vn -0.2322 0.8747 -0.4255
vn -0.0847 0.0409 -0.9956
vn 0.2291 0.0671 -0.9711
vn 0.2200 0.2896 -0.9315
vn -0.3977 0.0986 -0.9122
vn 0.3600 0.2614 -0.8956
vn 0.0367 0.2537 -0.9666
vn 0.5757 0.4283 -0.6965
vn 0.2118 -0.0821 -0.9739
vn 0.2165 0.6830 -0.6976
vn 0.9959 0.0870 -0.0242
vn -0.2741 -0.8169 -0.5075
vn -0.1329 0.7172 -0.6840
vn -0.2497 0.2622 -0.9322
vn -0.2331 -0.2308 -0.9447
vn 0.0723 0.6133 -0.7865
vn -0.5882 0.1481 -0.7950
vn -0.3766 0.0989 -0.9211
vn -0.2849 0.0011 -0.9586
vn -0.2748 0.4463 -0.8516
vn -0.4624 -0.2265 -0.8572
vn -0.5880 0.0754 -0.8054
vn -0.7780 -0.0970 -0.6207
vn -0.6757 0.0126 -0.7371
vn -0.5402 0.6600 -0.5221
vn -0.0656 0.8370 0.5432
vn 0.2004 0.5885 -0.7833
vn 0.0380 0.7640 -0.6441
vn -0.7748 0.6321 0.0112
vn -0.2842 0.7149 -0.6389
vn -0.7765 0.6256 -0.0753
vn 0.8833 0.4680 -0.0251
vn 0.8479 0.5265 0.0631
vn -0.7597 0.6467 -0.0678
vn -0.6791 0.6750 0.2882
vn 0.8532 0.4761 0.2131
vn 0.0110 0.7564 -0.6540
vn 0.4471 0.6863 -0.5737
vn 0.1924 0.8224 0.5354
vn 0.0096 0.0394 0.9992
vn 0.3829 0.2724 0.8827
vn 0.0388 0.0797 0.9961
vn 0.3617 0.7673 -0.5296
vn -0.7280 0.3163 -0.6082
vn 0.0511 0.5697 -0.8203
vn -0.3137 0.6903 0.6520
vn -0.8433 0.4600 0.2781
vn -0.9727 0.1952 0.1256
vn 0.7557 -0.1328 -0.6413
vn 0.9987 -0.0003 0.0507
vn 0.7786 0.4067 0.4779
vn -0.4532 0.1986 0.8690
vn -0.4946 0.2801 0.8228
vn -0.0820 0.1837 0.9796
vn -0.8882 0.1283 0.4412
vn -0.9967 0.0509 0.0627
vn -0.8418 -0.0305 -0.5390
vn -0.1123 -0.1454 -0.9830
vn -0.0172 -0.1667 -0.9859
vn 0.9947 0.0332 -0.0973
vn 0.3302 0.2683 0.9050
vn -0.0066 0.5916 0.8062
vt 0.901039 0.905153
vt 0.804739 0.356130
vt 0.336793 0.391807
vt 0.195271 0.466580
vt 0.883760 0.203831
vt 0.425380 0.750982
vt 0.209746 0.084193
vt 0.136779 0.747786
vt 0.501110 0.315730
vt 0.237263 0.017156
vt 0.773957 0.307025
vt 0.808216 0.225647
vt 0.852085 0.247845
vt 0.149102 0.375209
vt 0.047198 0.959845
vt 0.632394 0.081816
vt 0.816114 0.096408
vt 0.324714 0.627453
vt 0.103568 0.870840
vt 0.664822 0.886336
vt 0.785886 0.802068
vt 0.272929 0.044558
vt 0.035032 0.894179
vt 0.414584 0.027282
vt 0.150209 0.560167
vt 0.015345 0.893971
vt 0.034248 0.895650
vt 0.034654 0.948957
vt 0.865505 0.257367
vt 0.147665 0.368408
vt 0.901761 0.122461
vt 0.804947 0.107818
vt 0.109780 0.884386
vt 0.791776 0.816457
vt 0.797867 0.242548
vt 0.361372 0.487791
vt 0.109397 0.888846
vt 0.659985 0.545933
vt 0.081247 0.908762
vt 0.285035 0.409336
vt 0.206535 0.356908
vt 0.082079 0.876043
vt 0.670103 0.544413
vt 0.293540 0.195105
vt 0.755037 0.606568
vt 0.034688 0.898402
vt 0.513361 0.604550
vt 0.538091 0.609782
vt 0.561167 0.606014
vt 0.649716 0.543893
vt 0.395357 0.605244
vt 0.032423 0.874754
vt 0.400945 0.011041
vt 0.031045 0.893116
vt 0.155619 0.351265
vt 0.175032 0.352290
vt 0.181422 0.334717
vt 0.235817 0.437758
vt 0.247156 0.434188
vt 0.271211 0.434338
vt 0.282649 0.436557
vt 0.221553 0.379930
vt 0.272019 0.381980
vt 0.289688 0.789454
vt 0.621714 0.888261
vt 0.831322 0.803538
vt 0.428570 0.681534
vt 0.899578 0.889861
vt 0.823519 0.348759
vt 0.201329 0.447140
vt 0.160424 0.696297
vt 0.140009 0.875169
vt 0.916536 0.460117
vt 0.254484 0.680269
vt 0.043826 0.832781
vt 0.511500 0.359696
vt 0.043666 0.776320
vt 0.488124 0.358759
vt 0.017441 0.816417
vt 0.031190 0.750982
vt 0.302170 0.751267
vt 0.111407 0.752869
vt 0.238792 0.613567
vt 0.211986 0.654262
vt 0.231042 0.675632
vt 0.259305 0.674766
vt 0.727680 0.842437
vt 0.014295 0.336642
vt 0.014675 0.245980
vt 0.551599 0.402474
vt 0.708249 0.490297
vt 0.089808 0.328811
vt 0.106252 0.224694
vt 0.034914 0.526454
vt 0.033768 0.055542
vt 0.505757 0.718259
vt 0.065036 0.569251
vt 0.065990 0.014070
vt 0.366340 0.891442
vt 0.049578 0.027282
vt 0.487484 0.722793
vt 0.384934 0.893971
vt 0.481019 0.542966
vt 0.312253 0.891364
vt 0.553811 0.550279
vt 0.010278 0.227492
vt 0.681276 0.718099
vt 0.856783 0.611248
vt 0.560321 0.550280
vt 0.312572 0.898127
vt 0.506522 0.029175
vt 0.497919 0.205992
vt 0.540988 0.748827
vt 0.504608 0.169987
vt 0.613440 0.626906
vt 0.121368 0.543651
vt 0.536087 0.193128
vt 0.289374 0.913531
vt 0.113843 0.601581
vt 0.314831 0.872412
vt 0.536661 0.549747
vt 0.363047 0.877114
vt 0.365966 0.887001
vt 0.553400 0.544130
vt 0.555776 0.545033
vt 0.318201 0.876043
vt 0.538323 0.544019
vt 0.548374 0.545934
vt 0.368418 0.910349
vt 0.139699 0.469652
vt 0.327872 0.450663
vt 0.319767 0.946660
vt 0.680175 0.475874
vt 0.642455 0.491184
vt 0.162456 0.415890
vt 0.648228 0.493888
vt 0.163631 0.456649
vt 0.330729 0.326713
vt 0.317838 0.470463
vt 0.681291 0.492436
vt 0.342492 0.777030
vt 0.810913 0.325717
vt 0.390330 0.727386
vt 0.420165 0.690583
vt 0.248513 0.027203
vt 0.181837 0.652489
vt 0.259632 0.734679
vt 0.728817 0.918336
vt 0.449583 0.334952
vt 0.334575 0.190400
vt 0.797019 0.610588
vt 0.884868 0.126189
vt 0.861797 0.130332
vt 0.813157 0.204257
vt 0.274075 0.675009
vt 0.907675 0.315896
vt 0.592181 0.326345
vt 0.773393 0.470094
vt 0.577664 0.342600
vt 0.654760 0.332938
vt 0.173521 0.770717
vt 0.844599 0.322719
vt 0.195200 0.730843
vt 0.013096 0.248352
vt 0.475287 0.654497
vt 0.706910 0.724885
vt 0.503481 0.561297
vt 0.175332 0.486138
vt 0.043705 0.277611
vt 0.518515 0.011025
vt 0.509970 0.672637
vt 0.551560 0.058434
vt 0.589680 0.155593
vt 0.247331 0.605128
vt 0.616883 0.305829
vt 0.790093 0.472873
vt 0.589703 0.334739
vt 0.520629 0.322081
vt 0.315921 0.708627
vt 0.309095 0.660721
vt 0.648240 0.926828
vt 0.162585 0.741546
vt 0.345439 0.752489
vt 0.223085 0.028470
vt 0.873676 0.391938
vt 0.914442 0.400223
vt 0.717844 0.919591
vt 0.263380 0.462245
vt 0.847338 0.391642
vt 0.846835 0.058308
vt 0.277035 0.085249
vt 0.189335 0.644024
vt 0.567574 0.315864
vt 0.256788 0.097952
vt 0.546519 0.315814
vt 0.274986 0.040039
vt 0.279315 0.065137
vt 0.268549 0.085711
vt 0.242514 0.094269
vt 0.208790 0.047026
vt 0.034296 0.886949
vt 0.406297 0.802418
vt 0.824295 0.369433
vt 0.228677 0.460625
vt 0.321027 0.643885
vt 0.665207 0.893043
vt 0.264645 0.772660
vt 0.177657 0.688065
vt 0.738186 0.325169
vt 0.274690 0.069131
vt 0.214041 0.072563
vt 0.258501 0.087545
vt 0.232238 0.089241
vt 0.258754 0.756703
vt 0.178929 0.674704
vt 0.912401 0.916720
vt 0.434185 0.511418
vt 0.035241 0.889041
vt 0.825330 0.906214
vt 0.448671 0.429747
vt 0.742567 0.347094
vt 0.270101 0.392920
vt 0.413779 0.551508
vt 0.415103 0.032702
vt 0.433759 0.066026
vt 0.177528 0.564345
vt 0.291747 0.390141
vt 0.292548 0.192983
vt 0.373975 0.253977
vt 0.830400 0.645979
vt 0.666852 0.053223
vt 0.031088 0.929472
vt 0.149734 0.341667
vt 0.156166 0.523656
vt 0.022792 0.931678
vt 0.880381 0.252833
vt 0.334447 0.514630
vt 0.907964 0.066516
vt 0.873917 0.048442
vt 0.622703 0.063180
vt 0.797671 0.623106
vt 0.835216 0.659414
vt 0.688618 0.065708
vt 0.836118 0.059825
vt 0.668083 0.081469
vt 0.609395 0.044105
vt 0.740576 0.622397
vt 0.848809 0.179546
vt 0.860398 0.070686
vt 0.840598 0.212261
vt 0.803966 0.157807
vt 0.037232 0.877114
vt 0.105371 0.881379
vt 0.786755 0.811919
vt 0.340830 0.603680
vt 0.086103 0.873019
vt 0.671540 0.550202
vt 0.655215 0.543917
vt 0.780629 0.622691
vt 0.348100 0.208409
vt 0.628110 0.054905
vt 0.807841 0.619509
vt 0.528922 0.616306
vt 0.046417 0.898900
vt 0.560468 0.613887
vt 0.080593 0.898467
vt 0.524562 0.608783
vt 0.384356 0.499102
vt 0.707372 0.547140
vt 0.656129 0.546313
vt 0.322731 0.790920
vt 0.238661 0.371226
vt 0.260080 0.374858
vt 0.436983 0.743526
vt 0.059139 0.640170
vt 0.262715 0.615789
vt 0.220533 0.609856
vt 0.646812 0.305391
vt 0.212720 0.665936
vt 0.102259 0.800798
vt 0.572718 0.339591
vt 0.499941 0.392824
vt 0.481426 0.383669
vt 0.713422 0.823049
vt 0.592744 0.357126
vt 0.779953 0.490795
vt 0.125421 0.391270
vt 0.573201 0.368178
vt 0.748570 0.482359
vt 0.067740 0.728625
vt 0.201452 0.642726
vt 0.150648 0.762072
vt 0.221987 0.682564
vt 0.857415 0.315861
vt 0.104882 0.750250
vt 0.029866 0.674495
vt 0.538189 0.802522
vt 0.379502 0.870918
vt 0.045066 0.635278
vt 0.502792 0.812686
vt 0.504398 0.371840
vt 0.547103 0.372991
vt 0.146162 0.657971
vt 0.489669 0.922336
vt 0.480532 0.903007
vt 0.275438 0.663473
vt 0.266597 0.624531
vt 0.656311 0.351168
vt 0.188591 0.392740
vt 0.386924 0.888234
vt 0.512543 0.830429
vt 0.042267 0.545010
vt 0.062923 0.572282
vt 0.369881 0.888657
vt 0.156192 0.499102
vt 0.479067 0.547140
vt 0.552213 0.546465
vt 0.032517 0.313170
vt 0.034196 0.271057
vt 0.014923 0.425916
vt 0.016049 0.155816
vt 0.127320 0.394429
vt 0.128637 0.188388
vt 0.049385 0.552446
vt 0.049227 0.032285
vt 0.167334 0.389279
vt 0.182060 0.190543
vt 0.645889 0.602983
vt 0.032428 0.271355
vt 0.492771 0.665456
vt 0.063048 0.010983
vt 0.369363 0.893064
vt 0.501194 0.559343
vt 0.291280 0.890064
vt 0.533368 0.020130
vt 0.530178 0.676452
vt 0.486319 0.057199
vt 0.685947 0.755711
vt 0.692080 0.736541
vt 0.625194 0.762787
vt 0.492765 0.123420
vt 0.496819 0.756780
vt 0.379657 0.930648
vt 0.519141 0.254823
vt 0.784627 0.079343
vt 0.583300 0.096617
vt 0.532166 0.254843
vt 0.366879 0.946808
vt 0.505285 0.015702
vt 0.498708 0.676956
vt 0.575165 0.140729
vt 0.584273 0.201325
vt 0.158266 0.504040
vt 0.312132 0.889189
vt 0.551479 0.551178
vt 0.293994 0.881100
vt 0.974359 0.813468
vt 0.544881 0.668221
vt 0.724293 0.063955
vt 0.365066 0.888999
vt 0.365246 0.894178
vt 0.885580 0.609769
vt 0.545900 0.247937
vt 0.130553 0.416839
vt 0.352980 0.961108
vt 0.140372 0.424722
vt 0.137235 0.439407
vt 0.156027 0.431191
vt 0.157026 0.440942
vt 0.345927 0.907681
vt 0.299269 0.349500
vt 0.327243 0.362101
vt 0.500749 0.322399
vt 0.138178 0.741692
vt 0.338617 0.727484
vt 0.211600 0.074655
vt 0.893790 0.413077
vt 0.701178 0.926121
vt 0.426288 0.309676
vt 0.916966 0.380545
vt 0.734814 0.902436
vt 0.902788 0.359061
vt 0.430883 0.828598
vt 0.217562 0.025642
vt 0.796146 0.305882
vt 0.864648 0.200360
vt 0.362018 0.812454
vt 0.823737 0.339915
vt 0.413006 0.657984
vt 0.546929 0.322127
vt 0.288349 0.706724
vt 0.292449 0.698165
vt 0.272663 0.875237
vt 0.280294 0.037605
vt 0.735421 0.306614
vt 0.190911 0.680327
vt 0.879052 0.416304
vt 0.410919 0.305032
vt 0.430094 0.313171
vt 0.429966 0.271057
vt 0.335291 0.394429
vt 0.335524 0.188388
vt 0.714527 0.923683
vt 0.448315 0.336642
vt 0.449487 0.245980
vt 0.318850 0.194616
vt 0.781227 0.610487
vt 0.094171 0.928378
vt 0.804742 0.259591
vt 0.288188 0.520486
vt 0.910558 0.114048
vt 0.593369 0.108699
vt 0.895983 0.034773
vt 0.191741 0.545937
vt 0.878873 0.027582
vt 0.342484 0.538045
vt 0.279985 0.549797
vt 0.878205 0.071043
vt 0.764230 0.039102
vt 0.817053 0.234648
vt 0.108444 0.912516
vt 0.294564 0.931919
vt 0.603489 0.252014
vt 0.822610 0.146951
vt 0.057397 0.875476
vt 0.431733 0.271356
vt 0.894302 0.665457
vt 0.447349 0.135693
vt 0.251744 0.571851
vt 0.399700 0.572282
vt 0.030395 0.888658
vt 0.054356 0.907682
vt 0.258660 0.406340
vt 0.328532 0.788215
vt 0.181750 0.375526
vt 0.174785 0.361520
vt 0.247714 0.370531
vt 0.276346 0.873919
vt 0.635499 0.956258
vt 0.645895 0.917300
vt 0.906635 0.387442
vt 0.744862 0.888906
vt 0.912944 0.362766
vt 0.444195 0.829295
vt 0.853187 0.374260
vt 0.279236 0.641484
vt 0.527916 0.399052
vt 0.512136 0.417259
vt 0.044735 0.305817
vt 0.617650 0.820633
vt 0.013939 0.429746
vt 0.013447 0.749615
vt 0.616746 0.805154
vt 0.288565 0.751459
vt 0.113740 0.769315
vt 0.586727 0.319020
vt 0.114607 0.778568
vt 0.586214 0.326260
vt 0.131309 0.393123
vt 0.596868 0.356986
vt 0.387002 0.881752
vt 0.509154 0.823182
vt 0.019586 0.743527
vt 0.109504 0.616189
vt 0.131344 0.626100
vt 0.296809 0.871985
vt 0.976739 0.801926
vt 0.473913 0.887055
vt 0.227509 0.614429
vt 0.207414 0.640102
vt 0.147538 0.390260
vt 0.149046 0.193441
vt 0.184707 0.394803
vt 0.192595 0.187667
vt 0.060975 0.276712
vt 0.521693 0.670207
vt 0.082603 0.263795
vt 0.546974 0.657312
vt 0.734500 0.055372
vt 0.014113 0.155878
vt 0.607311 0.706969
vt 0.023856 0.091694
vt 0.530894 0.715052
vt 0.305187 0.902337
vt 0.715574 0.071013
vt 0.546928 0.029802
vt 0.540476 0.676019
vt 0.745336 0.084012
vt 0.563376 0.062139
vt 0.516232 0.070480
vt 0.513516 0.126189
vt 0.536587 0.130332
vt 0.554599 0.191225
vt 0.547252 0.107206
vt 0.598774 0.238536
vt 0.794983 0.065125
vt 0.589078 0.623185
vt 0.125554 0.560563
vt 0.634652 0.621543
vt 0.342882 0.875476
vt 0.899361 0.608771
vt 0.365988 0.896003
vt 0.911156 0.605253
vt 0.538083 0.251468
vt 0.361015 0.956198
vt 0.129064 0.420220
vt 0.527999 0.262523
vt 0.369064 0.933275
vt 0.130899 0.445020
vt 0.318027 0.933336
vt 0.672724 0.037863
vt 0.585909 0.263046
vt 0.363713 0.437613
vt 0.364019 0.908450
vt 0.148367 0.466900
vt 0.302473 0.332421
vt 0.327138 0.338046
vt 0.329395 0.373547
vt 0.368321 0.470419
vt 0.351536 0.461088
vt 0.340944 0.460274
vt 0.891670 0.394476
vt 0.201772 0.061707
vt 0.156493 0.749889
vt 0.205649 0.039099
vt 0.176325 0.751990
vt 0.806421 0.305791
vt 0.228604 0.097601
vt 0.518987 0.315737
vt 0.933639 0.913011
vt 0.013277 0.881752
vt 0.415059 0.768347
vt 0.901571 0.368369
vt 0.397450 0.640182
vt 0.359854 0.631882
vt 0.251666 0.023810
vt 0.315073 0.390260
vt 0.315115 0.193441
vt 0.154212 0.538753
vt 0.016058 0.915707
vt 0.851465 0.233352
vt 0.376377 0.601055
vt 0.050865 0.871068
vt 0.652404 0.544739
vt 0.154842 0.367629
vt 0.262800 0.363001
vt 0.080311 0.945007
vt 0.289944 0.777638
vt 0.764594 0.886107
vt 0.444449 0.810006
vt 0.036386 0.690547
vt 0.689783 0.820181
vt 0.692068 0.806709
vt 0.481945 0.368246
vt 0.011401 0.823008
vt 0.152790 0.773458
vt 0.198469 0.752111
vt 0.889717 0.322063
vt 0.147430 0.706822
vt 0.096377 0.632219
vt 0.137035 0.775396
vt 0.661593 0.321736
vt 0.192258 0.772055
vt 0.216395 0.627564
vt 0.274872 0.654833
vt 0.498956 0.411044
vt 0.028826 0.314855
vt 0.740923 0.845396
vt 0.540849 0.411470
vt 0.082718 0.322398
vt 0.076527 0.268539
vt 0.534972 0.666040
vt 0.526249 0.418134
vt 0.051867 0.306163
vt 0.053870 0.276657
vt 0.119264 0.202131
vt 0.582937 0.614057
vt 0.787978 0.056384
vt 0.128442 0.190431
vt 0.590110 0.610578
vt 0.539032 0.071472
vt 0.121431 0.523140
vt 0.594902 0.625956
vt 0.559964 0.226182
vt 0.589622 0.222216
vt 0.290371 0.926850
vt 0.623109 0.726317
vt 0.121069 0.572302
vt 0.646552 0.622744
vt 0.527728 0.735349
vt 0.914180 0.610437
vt 0.369903 0.899069
vt 0.150999 0.422243
vt 0.349811 0.942703
vt 0.645240 0.479349
vt 0.488109 0.913355
vt 0.534259 0.375022
vt 0.866980 0.405836
vt 0.845593 0.402474
vt 0.267553 0.464590
vt 0.371940 0.330513
vt 0.176464 0.740317
vt 0.342830 0.769315
vt 0.808674 0.321544
vt 0.340874 0.782803
vt 0.807074 0.330997
vt 0.184443 0.449734
vt 0.391584 0.616770
vt 0.217333 0.041433
vt 0.800325 0.356986
vt 0.331302 0.393123
vt 0.363912 0.347008
vt 0.358182 0.225200
vt 0.279582 0.190511
vt 0.739754 0.602867
vt 0.798503 0.636519
vt 0.621761 0.079289
vt 0.747019 0.637440
vt 0.805484 0.101468
vt 0.859304 0.052051
vt 0.346577 0.617038
vt 0.866401 0.016497
vt 0.861272 0.676905
vt 0.512022 0.404360
vt 0.856939 0.322215
vt 0.180021 0.712780
vt 0.538995 0.820264
vt 0.061271 0.605266
vt 0.367771 0.874643
vt 0.043568 0.657993
vt 0.229373 0.680215
vt 0.690760 0.324704
vt 0.228658 0.772493
vt 0.518089 0.045313
vt 0.496407 0.070103
vt 0.539080 0.052051
vt 0.515392 0.211747
vt 0.516351 0.017199
vt 0.542764 0.234865
vt 0.527806 0.068770
vt 0.180263 0.487962
vt 0.291207 0.888834
vt 0.702026 0.041760
vt 0.587332 0.235764
vt 0.141914 0.873764
vt 0.916448 0.459053
vt 0.501956 0.955133
vt 0.260277 0.019515
vt 0.750566 0.305496
vt 0.900465 0.205992
vt 0.206521 0.530055
vt 0.896221 0.072340
vt 0.246305 0.523257
vt 0.902283 0.171560
vt 0.914837 0.045419
vt 0.365484 0.527597
vt 0.862813 0.246819
vt 0.852517 0.107359
vt 0.878433 0.013809
vt 0.873196 0.677500
vt 0.810241 0.252326
vt 0.780708 0.039077
vt 0.285140 0.638849
vt 0.304845 0.759425
vt 0.206387 0.667444
vt 0.175241 0.762915
vt 0.844702 0.316039
vt 0.712030 0.834633
vt 0.010604 0.343987
vt 0.481352 0.044922
vt 0.476351 0.662526
vt 0.707896 0.740127
vt 0.492579 0.743796
vt 0.384261 0.914698
vt 0.319223 0.908693
vt 0.302156 0.375534
vt 0.384399 0.448026
vt 0.518854 0.887834
vt 0.932057 0.802830
vt 0.285320 0.064902
vt 0.190091 0.656991
vt 0.393938 0.838208
vt 0.872685 0.371238
vt 0.182812 0.643503
vt 0.564222 0.322256
vt 0.269754 0.718017
vt 0.947549 0.926852
vt 0.017575 0.888863
vt 0.414498 0.555011
vt 0.934127 0.900058
vt 0.020778 0.870918
vt 0.415094 0.642710
vt 0.853987 0.409233
vt 0.385830 0.313908
vt 0.375266 0.254158
vt 0.778433 0.357777
vt 0.310074 0.387011
vt 0.412056 0.306217
vt 0.411397 0.276769
vt 0.447677 0.425987
vt 0.448089 0.155631
vt 0.395668 0.309399
vt 0.863871 0.415868
vt 0.390556 0.270065
vt 0.275506 0.394665
vt 0.277731 0.187973
vt 0.432552 0.511794
vt 0.433855 0.073426
vt 0.451735 0.245649
vt 0.911821 0.654484
vt 0.366923 0.550805
vt 0.452162 0.181345
vt 0.296493 0.567699
vt 0.411555 0.277148
vt 0.871744 0.670528
vt 0.386898 0.269066
vt 0.845963 0.661919
vt 0.343165 0.386520
vt 0.344224 0.197633
vt 0.803659 0.613353
vt 0.217934 0.395421
vt 0.226927 0.187893
vt 0.684554 0.599813
vt 0.910521 0.663158
vt 0.370683 0.536654
vt 0.700347 0.067062
vt 0.856881 0.021578
vt 0.848979 0.673782
vt 0.637467 0.039148
vt 0.766019 0.623286
vt 0.656947 0.043843
vt 0.790358 0.626238
vt 0.364058 0.485504
vt 0.686552 0.561267
vt 0.108043 0.890312
vt 0.685446 0.558838
vt 0.792303 0.251577
vt 0.108907 0.930213
vt 0.382608 0.529686
vt 0.895518 0.018658
vt 0.890224 0.676877
vt 0.397572 0.569253
vt 0.398171 0.014071
vt 0.033947 0.891443
vt 0.705527 0.542997
vt 0.087929 0.891389
vt 0.654437 0.550004
vt 0.382283 0.504040
vt 0.088157 0.889088
vt 0.656740 0.551066
vt 0.509462 0.610672
vt 0.030331 0.899126
vt 0.567029 0.610747
vt 0.648187 0.548608
vt 0.087952 0.898026
vt 0.082212 0.932732
vt 0.812258 0.265441
vt 0.795027 0.040269
vt 0.231292 0.346311
vt 0.818412 0.248423
vt 0.769212 0.027789
vt 0.264138 0.345488
vt 0.081231 0.960508
vt 0.162102 0.371433
vt 0.046967 0.947387
vt 0.031880 0.910325
vt 0.157028 0.322636
vt 0.036260 0.908450
vt 0.165747 0.325057
vt 0.241575 0.409517
vt 0.170845 0.370533
vt 0.048170 0.943405
vt 0.326199 0.775938
vt 0.301657 0.690099
vt 0.279940 0.875170
vt 0.643984 0.947472
vt 0.443123 0.749617
vt 0.826842 0.890783
vt 0.249774 0.686831
vt 0.885253 0.315766
vt 0.274808 0.618303
vt 0.289709 0.760729
vt 0.593086 0.305798
vt 0.712327 0.487795
vt 0.549855 0.391642
vt 0.283589 0.659732
vt 0.917752 0.316084
vt 0.324790 0.757456
vt 0.325161 0.751068
vt 0.916133 0.322011
vt 0.118519 0.727301
vt 0.207995 0.621839
vt 0.659041 0.305405
vt 0.134792 0.761683
vt 0.482372 0.399772
vt 0.724042 0.839456
vt 0.013457 0.333352
vt 0.548414 0.827391
vt 0.025928 0.499538
vt 0.025618 0.088975
vt 0.641114 0.353797
vt 0.173299 0.388283
vt 0.617483 0.357896
vt 0.151451 0.386990
vt 0.068914 0.310664
vt 0.071438 0.271549
vt 0.119441 0.386512
vt 0.119757 0.197710
vt 0.165926 0.195731
vt 0.627618 0.607532
vt 0.588554 0.635308
vt 0.593471 0.101897
vt 0.794397 0.083235
vt 0.492689 0.165232
vt 0.622098 0.751007
vt 0.490227 0.030568
vt 0.483903 0.672529
vt 0.125917 0.547691
vt 0.617820 0.623403
vt 0.080121 0.601954
vt 0.349440 0.871076
vt 0.861690 0.605540
vt 0.558733 0.544287
vt 0.892274 0.616839
vt 0.352165 0.898915
vt 0.308692 0.929104
vt 0.586265 0.266857
vt 0.687866 0.040371
vt 0.588737 0.253003
vt 0.141517 0.420309
vt 0.353198 0.947570
vt 0.580219 0.248255
vt 0.698549 0.027976
vt 0.326279 0.436388
vt 0.319059 0.960577
vt 0.968367 0.817197
vt 0.290169 0.884441
vt 0.151054 0.680875
vt 0.911906 0.458144
vt 0.494949 0.947748
s 1
usemtl controller
f 306/534/1 222/389/2 307/535/3
f 80/144/4 79/143/5 222/389/2
f 214/375/6 100/179/7 426/774/8
f 307/535/3 426/774/8 101/180/9
f 219/384/10 6/10/11 103/184/12
f 308/536/13 103/184/12 6/10/11
f 6/10/11 373/648/14 308/536/13
f 308/536/13 373/648/14 225/394/15
f 110/196/16 308/536/13 225/394/15
f 389/680/17 110/196/16 225/394/15
f 111/197/18 110/196/16 389/680/17
f 108/191/19 112/198/20 389/680/17
f 112/198/20 111/197/18 389/680/17
f 108/191/19 109/194/21 113/199/22
f 113/199/22 112/198/20 108/191/19
f 109/194/21 302/528/23 113/199/22
f 113/199/22 302/528/23 215/376/24
f 302/528/23 5/7/25 215/376/24
f 5/7/25 300/523/26 215/376/24
f 114/200/27 215/376/24 300/523/26
f 301/525/28 114/200/27 300/523/26
f 301/525/28 219/384/10 103/184/12
f 103/184/12 114/200/27 301/525/28
f 304/532/29 102/183/30 79/143/5
f 390/682/31 78/141/32 116/202/33
f 78/141/32 390/682/31 221/387/34
f 226/397/35 343/598/36 104/185/37
f 226/397/35 104/185/37 299/522/38
f 299/522/38 216/377/39 226/397/35
f 254/441/40 216/377/39 299/522/38
f 254/441/40 105/186/41 216/377/39
f 105/186/41 254/441/40 217/380/42
f 217/381/42 83/148/43 105/187/41
f 217/381/42 127/219/44 83/148/43
f 427/778/45 127/219/44 217/381/42
f 343/598/36 398/703/46 394/693/47
f 394/693/47 106/189/48 343/598/36
f 344/599/49 106/189/48 394/693/47
f 344/600/49 117/204/50 106/188/48
f 2/4/51 117/204/50 344/600/49
f 299/522/38 104/185/37 390/683/31
f 254/441/40 299/522/38 390/683/31
f 390/683/31 305/533/52 254/441/40
f 217/380/42 254/441/40 255/443/53
f 305/533/52 255/443/53 254/441/40
f 316/549/54 217/381/42 255/442/53
f 218/383/55 390/682/31 116/202/33
f 304/532/29 218/383/55 116/202/33
f 316/550/54 218/383/55 304/532/29
f 304/532/29 4/6/56 316/550/54
f 217/381/42 316/549/54 427/778/45
f 79/143/5 426/774/8 307/535/3
f 307/535/3 222/389/2 79/143/5
f 214/375/6 426/774/8 79/143/5
f 343/598/36 106/189/48 256/445/57
f 104/185/37 343/598/36 256/445/57
f 117/203/50 256/445/57 106/189/48
f 256/445/57 117/203/50 39/69/58
f 2/4/51 39/70/58 117/204/50
f 390/683/31 256/445/57 221/388/34
f 78/141/32 102/183/30 304/532/29
f 4/6/56 79/143/5 80/144/4
f 1/1/59 127/219/44 427/778/45
f 127/219/44 1/1/59 125/216/60
f 38/67/61 158/274/62 80/144/4
f 304/532/29 79/143/5 4/6/56
f 100/178/7 214/373/6 5/9/25
f 300/524/26 5/8/25 214/374/6
f 102/182/30 300/524/26 214/374/6
f 301/526/28 102/182/30 345/602/63
f 301/526/28 300/524/26 102/182/30
f 301/527/28 345/604/63 219/385/10
f 6/11/11 395/696/64 128/221/65
f 6/11/11 128/221/65 373/649/14
f 225/396/15 124/215/66 389/681/17
f 124/215/66 82/146/67 389/681/17
f 391/684/68 108/192/19 82/146/67
f 108/192/19 389/681/17 82/146/67
f 108/193/19 391/685/68 109/195/21
f 223/390/69 109/195/21 391/685/68
f 223/390/69 100/178/7 109/195/21
f 302/529/23 109/195/21 100/178/7
f 5/9/25 302/529/23 100/178/7
f 79/143/5 102/183/30 214/375/6
f 345/603/63 102/183/30 78/141/32
f 123/213/70 81/145/71 11/22/72
f 120/210/73 123/213/70 11/22/72
f 123/213/70 120/210/73 122/212/74
f 123/213/70 121/211/75 348/609/76
f 348/609/76 81/145/71 123/213/70
f 349/610/77 346/606/78 2/2/51
f 345/604/63 346/606/78 219/385/10
f 6/11/11 219/385/10 346/606/78
f 6/11/11 349/610/77 395/696/64
f 346/606/78 349/610/77 6/11/11
f 303/530/79 125/216/60 1/1/59
f 392/687/80 125/216/60 303/530/79
f 392/688/80 303/531/79 28/52/81
f 28/52/81 247/431/82 392/688/80
f 18/33/83 20/37/84 146/253/85
f 303/530/79 1/1/59 38/68/61
f 38/68/61 393/690/86 303/530/79
f 28/52/81 303/531/79 393/691/86
f 306/534/1 347/608/87 393/692/86
f 347/608/87 28/51/81 393/692/86
f 80/144/4 158/274/62 4/6/56
f 304/532/29 116/202/33 78/141/32
f 218/382/55 305/533/52 390/683/31
f 305/533/52 218/382/55 255/443/53
f 316/550/54 255/444/53 218/383/55
f 4/6/56 158/274/62 316/550/54
f 221/388/34 256/445/57 39/69/58
f 78/141/32 221/387/34 346/605/78
f 427/777/45 158/274/62 38/67/61
f 78/142/32 346/606/78 345/604/63
f 38/67/61 80/144/4 222/389/2
f 393/692/86 222/389/2 306/534/1
f 307/535/3 347/608/87 306/534/1
f 307/535/3 354/621/88 347/608/87
f 307/535/3 10/18/89 354/621/88
f 221/388/34 39/69/58 346/606/78
f 101/180/9 118/205/90 307/535/3
f 118/205/90 10/18/89 307/535/3
f 119/207/91 362/633/92 124/214/66
f 224/392/93 426/774/8 100/179/7
f 224/392/93 100/179/7 223/391/69
f 119/209/91 225/395/15 373/649/14
f 119/209/91 373/649/14 128/221/65
f 362/633/92 82/147/67 124/214/66
f 82/147/67 357/626/94 391/686/68
f 124/215/66 225/396/15 119/208/91
f 103/184/12 308/536/13 81/145/71
f 81/145/71 348/609/76 103/184/12
f 308/536/13 110/196/16 11/22/72
f 11/22/72 81/145/71 308/536/13
f 111/197/18 11/22/72 110/196/16
f 120/210/73 11/22/72 111/197/18
f 112/198/20 120/210/73 111/197/18
f 122/212/74 120/210/73 112/198/20
f 112/198/20 113/199/22 122/212/74
f 123/213/70 122/212/74 113/199/22
f 215/376/24 123/213/70 113/199/22
f 123/213/70 215/376/24 121/211/75
f 215/376/24 114/200/27 348/609/76
f 348/609/76 121/211/75 215/376/24
f 114/200/27 103/184/12 348/609/76
f 179/308/95 91/160/96 128/221/65
f 119/209/91 128/221/65 91/160/96
f 223/391/69 357/626/94 40/71/97
f 40/71/97 224/392/93 223/391/69
f 396/698/98 398/702/46 226/398/35
f 343/598/36 226/397/35 398/703/46
f 229/403/99 105/187/41 83/148/43
f 216/378/39 105/187/41 229/403/99
f 216/379/39 229/404/99 227/399/100
f 127/220/44 397/700/101 229/404/99
f 229/404/99 83/149/43 127/220/44
f 344/601/49 394/694/47 350/612/102
f 350/612/102 2/3/51 344/601/49
f 2/3/51 350/612/102 405/718/103
f 2/3/51 405/718/103 228/401/104
f 2/3/51 228/401/104 349/611/77
f 397/700/101 127/220/44 400/707/105
f 400/707/105 127/220/44 125/217/60
f 395/697/64 309/537/106 131/227/107
f 131/227/107 128/222/65 395/697/64
f 128/222/65 131/227/107 399/705/108
f 349/611/77 228/401/104 309/537/106
f 395/697/64 349/611/77 309/537/106
f 392/689/80 129/223/109 400/707/105
f 392/689/80 400/707/105 125/217/60
f 392/689/80 247/430/82 415/742/110
f 415/742/110 129/223/109 392/689/80
f 154/268/111 417/748/112 20/36/84
f 20/36/84 411/733/113 154/268/111
f 411/733/113 20/36/84 94/168/114
f 128/222/65 399/705/108 406/721/115
f 406/721/115 179/309/95 128/222/65
f 403/714/116 398/704/46 396/699/98
f 396/698/98 226/398/35 216/379/39
f 216/379/39 227/399/100 396/698/98
f 129/224/109 415/743/110 29/53/117
f 227/400/100 245/426/118 403/714/116
f 403/714/116 396/699/98 227/400/100
f 229/405/99 401/709/119 245/426/118
f 245/426/118 227/400/100 229/405/99
f 229/405/99 402/712/120 401/709/119
f 402/712/120 229/405/99 397/701/101
f 397/701/101 246/428/121 402/712/120
f 398/704/46 403/714/116 404/716/122
f 132/229/123 394/695/47 398/704/46
f 398/704/46 404/716/122 132/229/123
f 132/229/123 350/613/102 394/695/47
f 350/613/102 132/229/123 150/260/124
f 150/260/124 405/719/103 350/613/102
f 228/402/104 405/719/103 84/150/125
f 246/428/121 397/701/101 400/708/105
f 309/538/106 230/406/126 24/44/127
f 131/228/107 309/538/106 24/44/127
f 24/44/127 351/614/128 131/228/107
f 399/706/108 131/228/107 351/614/128
f 228/402/104 84/150/125 230/406/126
f 230/406/126 309/538/106 228/402/104
f 130/225/129 246/428/121 400/708/105
f 130/225/129 129/224/109 13/24/130
f 130/225/129 400/708/105 129/224/109
f 29/53/117 13/24/130 129/224/109
f 411/734/113 416/745/131 154/269/111
f 412/736/132 416/745/131 411/734/113
f 399/706/108 351/614/128 406/722/115
f 403/715/116 414/741/133 380/660/134
f 414/741/133 403/715/116 245/427/118
f 407/724/135 245/427/118 401/710/119
f 408/728/136 404/717/122 403/715/116
f 403/715/116 355/623/137 408/728/136
f 404/717/122 138/242/138 132/230/123
f 137/240/139 150/261/124 132/231/123
f 405/720/103 150/262/124 84/151/125
f 230/407/126 149/259/140 409/730/141
f 409/730/141 24/45/127 230/407/126
f 140/247/142 351/615/128 24/45/127
f 418/752/143 13/26/130 29/54/117
f 412/735/132 241/421/144 419/755/145
f 419/755/145 416/746/131 412/735/132
f 190/334/146 241/421/144 412/735/132
f 150/262/124 137/241/139 84/151/125
f 337/589/147 406/723/115 351/615/128
f 236/415/148 136/239/149 353/620/150
f 353/620/150 355/622/137 236/415/148
f 236/415/148 234/413/151 136/239/149
f 377/655/152 135/238/153 234/413/151
f 232/410/154 237/416/155 238/417/156
f 16/31/157 135/238/153 232/411/154
f 135/237/153 377/656/152 232/410/154
f 237/416/155 232/410/154 377/656/152
f 355/622/137 353/620/150 408/727/136
f 408/727/136 353/620/150 107/190/158
f 139/245/159 138/243/138 408/726/136
f 408/727/136 107/190/158 139/244/159
f 9/16/160 137/240/139 139/245/159
f 352/616/161 410/732/162 137/241/139
f 352/618/161 140/247/142 410/732/162
f 374/650/163 134/236/164 376/654/165
f 134/234/164 235/414/166 310/539/167
f 374/651/163 235/414/166 134/234/164
f 134/235/164 310/540/167 133/232/168
f 15/28/169 134/235/164 133/232/168
f 232/410/154 238/417/156 374/651/163
f 374/651/163 376/653/165 232/410/154
f 137/240/139 9/16/160 352/617/161
f 140/247/142 352/618/161 337/589/147
f 142/249/170 136/239/149 239/418/171
f 142/249/170 353/620/150 136/239/149
f 234/413/151 375/652/172 239/418/171
f 239/418/171 136/239/149 234/413/151
f 375/652/172 234/413/151 135/238/153
f 375/652/172 135/238/153 16/31/157
f 239/418/171 375/652/172 85/152/173
f 16/31/157 85/152/173 375/652/172
f 142/249/170 107/190/158 353/620/150
f 139/244/159 107/190/158 9/17/160
f 17/32/174 352/619/161 9/17/160
f 376/654/165 3/5/175 16/31/157
f 15/29/169 378/657/176 3/5/175
f 378/657/176 311/541/177 220/386/178
f 220/386/178 3/5/175 378/657/176
f 3/5/175 376/654/165 15/29/169
f 134/236/164 15/29/169 376/654/165
f 15/29/169 8/13/179 378/657/176
f 242/423/180 285/495/181 19/35/182
f 85/152/173 16/31/157 3/5/175
f 16/31/157 232/411/154 376/654/165
f 352/619/161 17/32/174 233/412/183
f 236/415/148 355/622/137 380/659/134
f 414/740/133 236/415/148 380/659/134
f 414/740/133 234/413/151 236/415/148
f 407/725/135 377/656/152 414/739/133
f 234/413/151 414/740/133 377/655/152
f 377/656/152 407/725/135 237/416/155
f 139/245/159 137/240/139 138/243/138
f 374/651/163 238/417/156 235/414/166
f 409/729/141 410/731/162 140/246/142
f 423/766/184 133/232/168 310/540/167
f 239/418/171 85/152/173 86/153/185
f 220/386/178 85/152/173 3/5/175
f 85/152/173 220/386/178 141/248/186
f 141/248/186 86/153/185 85/152/173
f 143/250/187 141/248/186 220/386/178
f 311/541/177 143/250/187 220/386/178
f 8/13/179 311/541/177 378/657/176
f 8/13/179 240/420/188 311/541/177
f 379/658/189 142/249/170 239/418/171
f 107/190/158 142/249/170 379/658/189
f 141/248/186 379/658/189 86/153/185
f 243/424/190 379/658/189 141/248/186
f 143/250/187 87/154/191 141/248/186
f 143/250/187 311/541/177 240/420/188
f 8/13/179 421/760/192 240/420/188
f 86/153/185 379/658/189 239/418/171
f 243/424/190 141/248/186 87/154/191
f 87/154/191 143/250/187 7/12/193
f 240/420/188 7/12/193 143/250/187
f 381/662/194 240/419/188 421/761/192
f 107/190/158 243/424/190 9/17/160
f 107/190/158 379/658/189 243/424/190
f 17/32/174 9/17/160 243/424/190
f 87/154/191 7/12/193 19/35/182
f 231/409/195 413/737/196 19/35/182
f 242/423/180 19/35/182 413/737/196
f 242/422/180 413/738/196 335/586/197
f 452/837/198 20/37/84 18/33/83
f 285/495/181 17/32/174 144/251/199
f 285/495/181 144/251/199 87/154/191
f 19/35/182 285/495/181 87/154/191
f 243/424/190 144/251/199 17/32/174
f 144/251/199 243/424/190 87/154/191
f 347/608/87 312/542/200 28/51/81
f 312/542/200 347/608/87 354/621/88
f 354/621/88 147/255/201 312/542/200
f 147/255/201 354/621/88 10/18/89
f 146/253/85 147/256/201 10/19/89
f 20/37/84 417/749/112 147/256/201
f 146/253/85 20/37/84 147/256/201
f 355/623/137 403/715/116 380/660/134
f 245/427/118 407/724/135 414/741/133
f 401/711/119 237/416/155 407/725/135
f 402/713/120 238/417/156 237/416/155
f 237/416/155 401/711/119 402/713/120
f 238/417/156 402/713/120 246/429/121
f 404/717/122 408/728/136 138/242/138
f 132/231/123 138/243/138 137/240/139
f 84/151/125 137/241/139 410/732/162
f 235/414/166 246/429/121 130/226/129
f 246/429/121 235/414/166 238/417/156
f 149/259/140 410/732/162 409/730/141
f 24/45/127 409/730/141 140/247/142
f 84/151/125 410/732/162 230/407/126
f 230/407/126 410/732/162 149/259/140
f 130/226/129 310/539/167 235/414/166
f 13/25/130 310/539/167 130/226/129
f 423/766/184 310/540/167 424/768/202
f 418/752/143 424/768/202 310/540/167
f 310/540/167 13/26/130 418/752/143
f 419/755/145 241/421/144 22/39/203
f 351/615/128 140/247/142 337/589/147
f 115/201/204 247/431/82 28/52/81
f 28/52/81 145/252/205 115/201/204
f 247/431/82 115/201/204 126/218/206
f 126/218/206 415/744/110 247/431/82
f 148/258/207 21/38/208 154/270/111
f 417/750/112 154/270/111 21/38/208
f 415/744/110 126/218/206 12/23/209
f 12/23/209 29/54/117 415/744/110
f 29/54/117 12/23/209 14/27/210
f 416/747/131 313/544/211 154/270/111
f 154/270/111 313/544/211 148/258/207
f 25/46/212 29/54/117 14/27/210
f 416/747/131 27/50/213 313/544/211
f 312/543/200 244/425/214 28/52/81
f 145/252/205 28/52/81 244/425/214
f 147/256/201 23/42/215 244/425/214
f 244/425/214 312/543/200 147/256/201
f 23/43/215 147/257/201 417/750/112
f 417/750/112 21/38/208 23/43/215
f 25/46/212 418/752/143 29/54/117
f 152/265/216 26/48/217 27/49/213
f 26/48/217 152/265/216 151/263/218
f 152/265/216 27/49/213 419/753/145
f 419/754/145 27/50/213 416/747/131
f 418/751/143 25/47/212 153/267/219
f 153/267/219 151/263/218 418/751/143
f 151/263/218 153/267/219 26/48/217
f 241/421/144 420/756/220 22/39/203
f 231/408/195 241/421/144 413/738/196
f 231/408/195 420/756/220 241/421/144
f 420/757/220 231/409/195 381/661/194
f 19/35/182 381/661/194 231/409/195
f 240/420/188 381/661/194 7/12/193
f 381/661/194 19/35/182 7/12/193
f 424/768/202 418/752/143 151/264/218
f 151/264/218 248/432/221 424/768/202
f 248/432/221 151/264/218 152/266/216
f 152/266/216 22/39/203 248/432/221
f 22/39/203 152/266/216 419/755/145
f 15/30/169 133/233/168 30/55/222
f 30/55/222 314/545/223 15/30/169
f 421/761/192 420/758/220 381/662/194
f 314/545/223 422/764/224 8/14/179
f 8/14/179 15/30/169 314/545/223
f 422/764/224 314/545/223 425/771/225
f 30/55/222 425/771/225 314/545/223
f 423/767/184 30/55/222 133/233/168
f 420/759/220 421/762/192 315/546/226
f 421/763/192 8/15/179 422/765/224
f 422/765/224 315/547/226 421/763/192
f 155/271/227 425/773/225 249/434/228
f 425/771/225 30/55/222 250/436/229
f 250/436/229 249/435/228 425/771/225
f 31/56/230 250/436/229 30/55/222
f 423/767/184 31/56/230 30/55/222
f 31/56/230 423/767/184 32/57/231
f 423/767/184 424/769/202 32/57/231
f 424/770/202 248/433/221 33/59/232
f 33/59/232 32/58/231 424/770/202
f 248/433/221 22/40/203 34/60/233
f 34/60/233 33/59/232 248/433/221
f 35/61/234 34/60/233 22/40/203
f 251/437/235 22/41/203 420/759/220
f 22/41/203 251/437/235 156/272/236
f 22/41/203 156/272/236 35/62/234
f 157/273/237 251/437/235 315/546/226
f 420/759/220 315/546/226 251/437/235
f 157/273/237 315/546/226 36/63/238
f 425/772/225 315/547/226 422/765/224
f 155/271/227 36/64/238 425/773/225
f 315/548/226 425/773/225 36/64/238
f 224/393/93 40/72/97 252/438/239
f 426/775/8 224/393/93 252/438/239
f 252/439/239 372/647/240 341/596/241
f 118/206/90 253/440/242 37/65/243
f 118/206/90 37/65/243 10/20/89
f 202/357/244 18/34/83 37/66/243
f 18/34/83 202/357/244 452/836/198
f 252/439/239 101/181/9 426/776/8
f 101/181/9 252/439/239 253/440/242
f 253/440/242 118/206/90 101/181/9
f 10/21/89 37/66/243 18/34/83
f 10/21/89 18/34/83 146/254/85
f 158/274/62 427/777/45 316/550/54
f 38/67/61 222/389/2 393/692/86
f 2/4/51 346/607/78 39/70/58
f 104/185/37 256/445/57 390/683/31
f 38/68/61 1/1/59 427/778/45
f 322/560/245 360/630/246 159/275/247
f 168/290/248 321/559/249 432/791/250
f 453/838/251 40/71/97 322/560/245
f 98/174/252 160/276/253 269/469/254
f 269/469/254 161/277/255 98/174/252
f 269/469/254 433/792/256 161/277/255
f 169/291/257 269/469/254 270/470/258
f 269/469/254 169/291/257 433/792/256
f 169/291/257 270/470/258 162/279/259
f 169/291/257 162/279/259 383/665/260
f 162/279/259 170/293/261 383/665/260
f 170/293/261 162/279/259 361/631/262
f 361/631/262 428/779/263 170/293/261
f 428/779/263 361/631/262 41/74/264
f 41/74/264 88/155/265 428/779/263
f 88/155/265 41/74/264 177/306/266
f 177/306/266 431/786/267 88/155/265
f 431/786/267 177/306/266 382/663/268
f 382/663/268 177/306/266 257/446/269
f 382/663/268 257/446/269 160/276/253
f 160/276/253 429/781/270 382/663/268
f 160/276/253 98/174/252 429/781/270
f 342/597/271 42/76/272 163/281/273
f 259/448/274 356/624/275 258/447/276
f 326/566/277 356/624/275 259/448/274
f 164/282/278 356/624/275 326/566/277
f 165/283/279 164/282/278 326/566/277
f 326/566/277 434/795/280 165/283/279
f 434/796/280 384/668/281 165/284/279
f 318/552/282 165/284/279 384/668/281
f 384/668/281 260/450/283 318/552/282
f 318/552/282 260/450/283 261/453/284
f 327/569/285 430/785/286 52/90/287
f 258/447/276 430/785/286 327/569/285
f 166/286/288 52/91/287 167/289/289
f 430/784/286 167/289/289 52/91/287
f 264/460/290 166/285/288 99/177/291
f 356/624/275 174/301/292 258/447/276
f 174/301/292 356/624/275 164/282/278
f 165/283/279 319/554/293 174/301/292
f 165/283/279 174/301/292 164/282/278
f 319/553/293 165/284/279 318/552/282
f 43/77/294 163/280/273 42/75/272
f 43/77/294 42/75/272 44/79/295
f 44/79/295 45/80/296 43/77/294
f 261/453/284 319/553/293 318/552/282
f 360/630/246 322/560/245 317/551/297
f 322/560/245 168/290/248 317/551/297
f 321/559/249 168/290/248 40/71/97
f 322/560/245 40/71/97 168/290/248
f 175/302/298 430/785/286 258/447/276
f 258/447/276 342/597/271 175/302/298
f 430/785/286 175/302/298 167/288/289
f 167/288/289 175/302/298 90/159/299
f 90/158/299 166/286/288 167/289/289
f 175/302/298 342/597/271 163/281/273
f 168/290/248 171/295/300 263/457/301
f 317/551/297 168/290/248 45/80/296
f 435/798/302 358/627/303 260/450/283
f 261/453/284 260/450/283 358/627/303
f 317/551/297 266/463/304 172/296/305
f 168/290/248 263/457/301 43/77/294
f 45/80/296 168/290/248 43/77/294
f 431/787/267 432/790/250 88/156/265
f 382/664/268 46/81/306 432/789/250
f 432/789/250 431/788/267 382/664/268
f 262/454/307 382/664/268 429/782/270
f 382/664/268 262/454/307 46/81/306
f 429/783/270 89/157/308 262/456/307
f 98/175/252 161/278/255 436/801/309
f 436/801/309 437/803/310 98/175/252
f 323/561/311 169/292/257 320/556/312
f 320/556/312 169/292/257 92/161/313
f 92/161/313 169/292/257 383/666/260
f 357/625/94 383/667/260 170/294/261
f 383/667/260 357/625/94 92/162/313
f 428/780/263 321/558/249 357/625/94
f 357/625/94 170/294/261 428/780/263
f 321/558/249 428/780/263 88/156/265
f 88/156/265 432/790/250 321/558/249
f 432/791/250 46/82/306 171/295/300
f 171/295/300 168/290/248 432/791/250
f 171/295/300 46/82/306 262/455/307
f 262/455/307 263/457/301 171/295/300
f 263/458/301 262/456/307 89/157/308
f 47/83/314 178/307/315 324/564/316
f 49/85/317 48/84/318 324/564/316
f 324/564/316 50/86/319 49/85/317
f 325/565/320 50/86/319 324/564/316
f 178/307/315 325/565/320 324/564/316
f 429/783/270 98/175/252 89/157/308
f 264/460/290 98/175/252 437/803/310
f 358/627/303 180/311/321 265/462/322
f 180/310/321 181/314/323 359/629/324
f 359/629/324 265/461/322 180/310/321
f 452/837/198 202/356/244 370/642/325
f 172/297/305 358/627/303 265/462/322
f 172/296/305 173/299/326 360/630/246
f 173/299/326 359/628/324 159/275/247
f 173/298/326 265/461/322 359/629/324
f 45/80/296 266/463/304 317/551/297
f 166/286/288 90/158/299 99/176/291
f 43/77/294 263/457/301 163/280/273
f 342/597/271 174/301/292 42/76/272
f 44/78/295 42/76/272 174/301/292
f 319/554/293 44/78/295 174/301/292
f 266/463/304 44/79/295 319/555/293
f 44/79/295 266/463/304 45/80/296
f 163/281/273 90/159/299 175/302/298
f 90/159/299 263/458/301 99/177/291
f 172/296/305 266/463/304 261/452/284
f 89/157/308 99/177/291 263/458/301
f 360/630/246 317/551/297 172/296/305
f 159/275/247 360/630/246 173/299/326
f 159/275/247 359/628/324 322/560/245
f 359/628/324 445/820/327 322/560/245
f 445/820/327 267/464/328 322/560/245
f 267/464/328 268/465/329 176/303/330
f 176/303/330 322/560/245 267/464/328
f 163/281/273 263/458/301 90/159/299
f 322/560/245 176/303/330 453/838/251
f 357/626/94 321/559/249 40/71/97
f 179/308/95 161/278/255 91/160/96
f 179/308/95 436/801/309 161/278/255
f 433/793/256 91/160/96 161/278/255
f 362/633/92 320/557/312 82/147/67
f 91/160/96 433/793/256 323/562/311
f 323/561/311 433/794/256 169/292/257
f 160/276/253 178/307/315 47/83/314
f 47/83/314 269/469/254 160/276/253
f 324/564/316 269/469/254 47/83/314
f 269/469/254 324/564/316 270/470/258
f 270/470/258 324/564/316 48/84/318
f 48/84/318 162/279/259 270/470/258
f 162/279/259 48/84/318 49/85/317
f 162/279/259 49/85/317 361/631/262
f 361/631/262 49/85/317 41/74/264
f 41/74/264 49/85/317 50/86/319
f 50/86/319 177/306/266 41/74/264
f 177/306/266 50/86/319 325/565/320
f 325/565/320 257/446/269 177/306/266
f 257/446/269 325/565/320 178/307/315
f 178/307/315 160/276/253 257/446/269
f 362/632/92 119/209/91 91/160/96
f 91/160/96 323/562/311 362/632/92
f 223/391/69 391/686/68 357/626/94
f 320/557/312 362/633/92 323/563/311
f 92/163/313 82/147/67 320/557/312
f 357/626/94 82/147/67 92/163/313
f 259/448/274 258/447/276 328/573/331
f 327/569/285 328/573/331 258/447/276
f 328/574/331 327/570/285 438/805/332
f 326/567/277 259/449/274 183/318/333
f 183/318/333 51/88/334 326/567/277
f 51/87/334 434/796/280 326/568/277
f 384/669/281 434/797/280 51/88/334
f 260/451/283 384/669/281 51/88/334
f 51/88/334 184/320/335 260/451/283
f 439/807/336 52/92/287 166/287/288
f 185/322/337 439/807/336 166/287/288
f 264/459/290 185/322/337 166/287/288
f 435/799/302 260/451/283 184/320/335
f 187/326/338 271/471/339 437/804/310
f 437/804/310 436/802/309 187/326/338
f 179/309/95 187/326/338 436/802/309
f 187/326/338 179/309/95 272/473/340
f 271/471/339 264/459/290 437/804/310
f 271/471/339 185/322/337 264/459/290
f 435/798/302 180/311/321 358/627/303
f 435/799/302 53/94/341 180/312/321
f 54/97/342 181/313/323 180/312/321
f 180/312/321 186/324/343 54/97/342
f 370/641/325 201/353/344 182/315/345
f 182/315/345 94/168/114 370/641/325
f 406/721/115 272/473/340 179/309/95
f 328/575/331 438/806/332 273/475/346
f 328/574/331 183/318/333 259/449/274
f 186/324/343 180/312/321 53/94/341
f 189/331/347 54/98/342 186/325/343
f 95/169/348 188/329/349 183/319/333
f 273/475/346 95/169/348 328/575/331
f 183/319/333 328/575/331 95/169/348
f 51/89/334 183/319/333 188/329/349
f 188/329/349 93/164/350 51/89/334
f 93/164/350 57/106/351 51/89/334
f 57/106/351 275/480/352 184/321/335
f 184/321/335 51/89/334 57/106/351
f 327/571/285 273/475/346 438/806/332
f 327/571/285 52/93/287 274/477/353
f 329/576/354 274/477/353 52/93/287
f 52/93/287 439/808/336 329/576/354
f 330/579/355 329/576/354 185/323/337
f 439/808/336 185/323/337 329/576/354
f 435/800/302 184/321/335 276/482/356
f 275/480/352 276/482/356 184/321/335
f 440/809/357 330/579/355 271/472/339
f 440/809/357 271/472/339 187/327/338
f 185/323/337 271/472/339 330/579/355
f 53/95/341 435/800/302 276/482/356
f 55/100/358 186/325/343 53/95/341
f 186/325/343 55/100/358 189/331/347
f 94/167/114 56/103/359 190/333/146
f 182/316/345 56/103/359 94/167/114
f 411/734/113 94/167/114 190/333/146
f 411/734/113 190/333/146 412/736/132
f 406/722/115 187/327/338 272/474/340
f 188/330/349 95/171/348 198/350/360
f 93/165/350 188/330/349 385/671/361
f 273/476/346 327/572/285 191/336/362
f 330/580/355 440/810/357 444/819/363
f 189/332/347 55/102/358 339/592/364
f 58/110/365 277/484/366 56/104/359
f 190/334/146 56/104/359 277/484/366
f 277/484/366 64/118/367 190/334/146
f 64/118/367 241/421/144 190/334/146
f 330/580/355 286/497/368 329/577/354
f 187/328/338 406/723/115 337/589/147
f 363/634/369 367/638/370 191/335/362
f 365/636/371 363/634/369 191/335/362
f 363/634/369 59/111/372 367/638/370
f 59/111/372 363/634/369 192/337/373
f 443/816/374 59/111/372 192/337/373
f 363/634/369 364/635/375 192/337/373
f 385/670/361 443/816/374 192/337/373
f 192/338/373 442/815/376 193/339/377
f 194/341/378 192/337/373 364/635/375
f 192/338/373 194/340/378 442/815/376
f 278/486/379 365/636/371 191/335/362
f 96/172/380 365/636/371 278/486/379
f 278/485/379 203/359/381 279/488/382
f 279/489/382 96/172/380 278/486/379
f 203/359/381 286/496/368 196/345/383
f 203/359/381 196/345/383 279/488/382
f 286/497/368 332/583/384 441/811/385
f 60/113/386 338/590/387 442/815/376
f 60/112/386 442/814/376 61/114/388
f 61/114/388 195/344/389 60/112/386
f 62/115/390 337/589/147 441/811/385
f 332/583/384 62/115/390 441/811/385
f 386/673/391 338/590/387 195/342/389
f 60/113/386 195/342/389 338/590/387
f 292/508/392 386/674/391 195/343/389
f 241/421/144 64/118/367 335/586/197
f 335/586/197 413/738/196 241/421/144
f 194/341/378 61/114/388 442/814/376
f 352/618/161 441/811/385 337/589/147
f 365/636/371 369/640/393 363/634/369
f 369/640/393 280/490/394 363/634/369
f 364/635/375 363/634/369 280/490/394
f 364/635/375 281/491/395 194/341/378
f 281/491/395 364/635/375 280/490/394
f 365/636/371 96/172/380 331/581/396
f 196/346/383 96/172/380 279/489/382
f 196/346/383 441/812/385 233/412/183
f 61/114/388 366/637/397 195/344/389
f 61/114/388 63/117/398 366/637/397
f 197/347/399 195/344/389 366/637/397
f 63/117/398 368/639/400 366/637/397
f 366/637/397 368/639/400 197/347/399
f 292/507/392 195/344/389 197/347/399
f 291/504/401 197/347/399 368/639/400
f 61/114/388 194/341/378 281/491/395
f 441/812/385 352/619/161 233/412/183
f 95/170/348 191/335/362 367/638/370
f 198/349/360 95/170/348 367/638/370
f 198/349/360 367/638/370 59/111/372
f 443/816/374 198/349/360 59/111/372
f 193/339/377 385/672/361 192/338/373
f 193/339/377 442/815/376 336/587/402
f 338/590/387 336/587/402 442/815/376
f 191/336/362 203/358/381 278/487/379
f 332/582/384 444/818/363 62/116/390
f 337/588/147 444/818/363 287/498/403
f 337/588/147 62/116/390 444/818/363
f 386/674/391 292/508/392 72/129/404
f 441/813/385 196/345/383 286/496/368
f 280/490/394 369/640/393 282/492/405
f 282/492/405 281/491/395 280/490/394
f 61/114/388 281/491/395 63/117/398
f 281/491/395 282/492/405 63/117/398
f 333/584/406 368/639/400 63/117/398
f 368/639/400 333/584/406 207/363/407
f 207/363/407 291/504/401 368/639/400
f 369/640/393 365/636/371 331/581/396
f 369/640/393 331/581/396 284/494/408
f 284/494/408 331/581/396 96/172/380
f 282/492/405 284/494/408 283/493/409
f 63/117/398 282/492/405 283/493/409
f 63/117/398 283/493/409 333/584/406
f 283/493/409 200/352/410 333/584/406
f 451/832/411 333/584/406 334/585/412
f 333/584/406 451/832/411 207/363/407
f 369/640/393 284/494/408 282/492/405
f 199/351/413 283/493/409 284/494/408
f 333/584/406 200/352/410 334/585/412
f 451/832/411 334/585/412 371/644/414
f 196/346/383 284/494/408 96/172/380
f 200/352/410 97/173/415 285/495/181
f 334/585/412 200/352/410 285/495/181
f 199/351/413 284/494/408 196/346/383
f 233/412/183 199/351/413 196/346/383
f 448/826/416 242/422/180 335/586/197
f 370/641/325 94/168/114 20/36/84
f 370/642/325 20/37/84 452/837/198
f 285/495/181 97/173/415 233/412/183
f 233/412/183 17/32/174 285/495/181
f 334/585/412 285/495/181 371/644/414
f 233/412/183 97/173/415 199/351/413
f 283/493/409 199/351/413 97/173/415
f 97/173/415 200/352/410 283/493/409
f 445/820/327 65/119/417 267/464/328
f 65/119/417 268/465/329 267/464/328
f 65/120/417 201/354/344 370/642/325
f 65/120/417 370/642/325 202/356/244
f 202/356/244 268/466/329 65/120/417
f 95/171/348 273/476/346 191/336/362
f 385/671/361 188/330/349 443/817/374
f 198/350/360 443/817/374 188/330/349
f 57/107/351 93/166/350 193/339/377
f 193/339/377 93/166/350 385/672/361
f 275/481/352 57/107/351 336/587/402
f 193/339/377 336/587/402 57/107/351
f 203/358/381 191/336/362 327/572/285
f 327/572/285 274/478/353 203/358/381
f 274/479/353 329/578/354 286/496/368
f 286/496/368 203/359/381 274/479/353
f 332/583/384 286/497/368 330/580/355
f 275/481/352 338/590/387 276/483/356
f 338/590/387 275/481/352 336/587/402
f 332/583/384 330/580/355 444/819/363
f 287/499/403 444/819/363 440/810/357
f 440/810/357 187/328/338 287/499/403
f 337/589/147 287/499/403 187/328/338
f 53/96/341 276/483/356 338/590/387
f 53/96/341 386/673/391 55/101/358
f 386/673/391 53/96/341 338/590/387
f 339/592/364 55/102/358 386/674/391
f 294/514/418 386/674/391 72/129/404
f 386/674/391 294/514/418 339/592/364
f 58/110/365 387/675/419 277/484/366
f 387/675/419 64/118/367 277/484/366
f 359/629/324 181/314/323 67/123/420
f 67/123/420 66/122/421 359/629/324
f 204/360/422 67/123/420 181/314/323
f 181/314/323 54/99/342 204/360/422
f 71/128/423 182/317/345 201/355/344
f 182/317/345 71/128/423 68/124/424
f 205/361/425 204/360/422 54/99/342
f 54/99/342 189/332/347 205/361/425
f 205/361/425 189/332/347 290/502/426
f 182/317/345 69/125/427 56/105/359
f 68/124/424 69/125/427 182/317/345
f 189/332/347 339/592/364 290/502/426
f 58/109/365 56/105/359 69/125/427
f 359/629/324 288/500/428 445/821/327
f 288/500/428 359/629/324 66/122/421
f 288/500/428 70/126/429 65/120/417
f 65/120/417 445/821/327 288/500/428
f 201/355/344 65/121/417 70/127/429
f 70/127/429 71/128/423 201/355/344
f 447/824/430 58/108/365 206/362/431
f 206/362/431 58/108/365 446/822/432
f 69/125/427 446/823/432 58/109/365
f 289/501/433 290/503/426 339/591/364
f 206/362/431 289/501/433 447/824/430
f 339/591/364 447/824/430 289/501/433
f 335/586/197 64/118/367 448/826/416
f 448/826/416 64/118/367 387/675/419
f 387/675/419 293/510/434 448/826/416
f 449/829/435 242/423/180 448/827/416
f 293/511/434 451/833/411 449/828/435
f 448/827/416 293/512/434 449/829/435
f 371/643/414 449/828/435 451/833/411
f 449/829/435 371/644/414 285/495/181
f 285/495/181 242/423/180 449/829/435
f 294/514/418 212/370/436 447/825/430
f 447/825/430 339/592/364 294/514/418
f 212/370/436 387/675/419 58/110/365
f 58/110/365 447/825/430 212/370/436
f 292/508/392 197/348/399 291/505/401
f 207/364/407 450/830/437 291/506/401
f 208/366/438 291/506/401 450/830/437
f 291/506/401 208/366/438 209/367/439
f 291/506/401 209/367/439 292/509/392
f 209/367/439 72/130/404 292/509/392
f 296/518/440 387/676/419 212/371/436
f 298/521/441 73/131/442 293/513/434
f 73/131/442 451/834/411 293/513/434
f 450/831/437 207/365/407 73/132/442
f 451/835/411 73/132/442 207/365/407
f 74/134/443 340/595/444 75/136/445
f 450/830/437 340/593/444 208/366/438
f 340/593/444 74/135/443 210/368/446
f 210/368/446 209/367/439 340/593/444
f 208/366/438 340/593/444 209/367/439
f 209/367/439 210/368/446 211/369/447
f 209/367/439 211/369/447 72/130/404
f 76/137/448 72/130/404 211/369/447
f 76/137/448 294/515/418 72/130/404
f 294/516/418 76/138/448 295/517/449
f 295/517/449 212/371/436 294/516/418
f 212/371/436 295/517/449 213/372/450
f 213/372/450 296/518/440 212/371/436
f 297/520/451 387/677/419 296/519/440
f 297/520/451 298/521/441 387/677/419
f 293/513/434 387/677/419 298/521/441
f 77/139/452 73/131/442 298/521/441
f 75/136/445 340/595/444 77/140/452
f 450/831/437 73/132/442 340/594/444
f 73/133/442 77/140/452 340/595/444
f 40/72/97 372/645/240 252/438/239
f 253/440/242 252/439/239 341/596/241
f 253/440/242 341/596/241 37/65/243
f 341/596/241 388/678/453 37/65/243
f 341/596/241 268/468/329 388/678/453
f 202/357/244 37/66/243 388/679/453
f 202/357/244 388/679/453 268/467/329
f 40/73/97 453/839/251 372/646/240
f 453/840/251 176/304/330 341/596/241
f 341/596/241 372/647/240 453/840/251
f 341/596/241 176/305/330 268/468/329
f 319/555/293 261/452/284 266/463/304
f 99/177/291 89/157/308 264/460/290
f 89/157/308 98/175/252 264/460/290
f 342/597/271 258/447/276 174/301/292
f 261/453/284 358/627/303 172/297/305
f 173/300/326 172/297/305 265/462/322
