# Blender 3.2.2
# www.blender.org
mtllib joystick.mtl
o joystick
v 0.010183 -0.008424 0.009988
v 0.013139 0.000306 0.009989
v 0.004459 0.012430 0.009991
v -0.012805 0.004209 0.009972
v -0.013424 -0.000736 0.009991
v -0.007406 -0.011250 0.009965
v -0.002146 -0.006266 0.018160
v 0.006672 0.008579 0.020921
v -0.006714 0.005125 0.025392
v -0.003261 -0.007940 0.025342
v -0.001925 -0.013266 0.009975
v 0.003364 -0.012863 0.009988
v 0.012126 0.005185 0.009972
v 0.000169 0.013247 0.009981
v -0.004537 0.012510 0.009985
v -0.009579 0.009289 0.009964
v -0.012581 -0.004751 0.009997
v -0.010878 -0.007915 0.009996
v 0.001325 -0.005754 0.017686
v 0.004291 0.003840 0.017515
v 0.005049 0.000625 0.016499
v -0.001738 -0.010972 0.020895
v 0.006110 -0.009112 0.020750
v 0.009838 -0.004480 0.020894
v 0.010621 0.002322 0.020849
v -0.001475 0.011031 0.020874
v -0.008680 -0.007021 0.020921
v 0.003375 0.007715 0.025337
v -0.008705 0.000600 0.025393
v -0.007061 -0.004906 0.025428
v 0.001572 -0.008221 0.025412
v -0.006312 -0.000819 0.024112
v 0.007216 -0.011126 0.009992
v 0.012375 -0.004636 0.009976
v 0.008756 0.009965 0.009980
v -0.004551 -0.004383 0.023979
v -0.001454 -0.004897 0.012360
v 0.003349 -0.003678 0.015668
v -0.000014 0.005428 0.017111
v 0.005857 -0.006221 0.025292
v 0.008152 -0.001264 0.025401
v 0.007252 0.004267 0.025353
v 0.005259 0.003108 0.023991
v 0.005337 -0.003530 0.018028
v 0.003608 -0.004999 0.024086
v 0.001221 0.006075 0.024033
v -0.003417 0.005150 0.024015
v -0.005870 0.002249 0.023946
v 0.003558 -0.003228 0.012374
v 0.004778 0.000189 0.012279
v 0.003467 0.002870 0.012520
v -0.000813 0.005071 0.012258
v -0.004461 0.001804 0.012465
v -0.004714 -0.001793 0.012282
v -0.003817 -0.003890 0.016773
v -0.008453 0.006967 0.020854
v -0.004869 0.003601 0.017572
v -0.011214 0.000643 0.020905
v -0.005497 -0.001942 0.017417
v -0.002514 0.008262 0.025291
v -0.000626 -0.006259 0.023995
v 0.005885 -0.001760 0.023992
v 0.053317 0.003372 0.017233
vn -0.5147 0.4360 0.7382
vn -0.3166 0.0937 0.9439
vn 0.0260 0.3272 0.9446
vn -0.2703 -0.1684 0.9479
vn -0.0750 -0.3059 0.9491
vn 0.1663 -0.2549 0.9526
vn 0.4243 -0.0977 0.9003
vn 0.2393 0.2939 0.9254
vn 0.3964 0.0859 0.9141
vn -0.1452 -0.2270 0.9630
vn -0.0374 -0.2720 0.9616
vn -0.1674 -0.7132 0.6807
vn 0.0664 -0.2549 0.9647
vn 0.5228 -0.4978 0.6920
vn 0.1433 -0.2244 0.9639
vn 0.2136 -0.1694 0.9621
vn 0.2523 -0.0866 0.9638
vn 0.7302 0.0092 0.6832
vn 0.2658 0.0058 0.9640
vn 0.2542 0.1069 0.9612
vn 0.5820 0.5573 0.5922
vn 0.1706 0.2015 0.9645
vn 0.0925 0.2321 0.9683
vn -0.0702 0.7095 0.7012
vn 0.0061 0.2677 0.9635
vn -0.0976 0.2459 0.9644
vn -0.1875 0.1933 0.9631
vn -0.7333 0.3194 0.6002
vn -0.2600 0.0941 0.9610
vn -0.2667 -0.0118 0.9637
vn -0.2466 -0.0897 0.9650
vn -0.7052 -0.2746 0.6537
vn -0.2051 -0.1601 0.9655
vn -0.6521 -0.7321 -0.1968
vn 0.1709 -0.7270 -0.6650
vn -0.2444 -0.5268 -0.8141
vn 0.6670 -0.6796 -0.3054
vn 0.5689 -0.2948 -0.7677
vn 0.9962 0.0801 -0.0351
vn 0.5755 0.4995 -0.6476
vn 0.0571 0.8378 -0.5429
vn -0.6088 0.4682 -0.6405
vn -0.7608 -0.2591 -0.5950
vn -0.1503 -0.9617 -0.2291
vn 0.5221 -0.8162 -0.2475
vn 0.9016 -0.3684 -0.2266
vn 0.9501 0.1971 -0.2418
vn 0.5837 0.7795 -0.2272
vn -0.1110 0.9681 -0.2245
vn -0.7326 0.6430 -0.2233
vn -0.9767 0.0470 -0.2095
vn -0.7488 -0.6219 -0.2292
vn 0.0551 -0.3611 0.9309
vn -0.1399 -0.3877 0.9111
vn 0.3448 -0.3073 0.8870
vn 0.3437 -0.0655 0.9368
vn 0.3481 0.1942 0.9171
vn 0.1305 0.3864 0.9130
vn -0.1370 0.3947 0.9085
vn -0.2750 0.2303 0.9335
vn -0.4288 0.0108 0.9033
vn -0.3331 -0.1993 0.9216
vt 0.313542 0.515784
vt 0.267078 0.607919
vt 0.098535 0.632861
vt 0.024674 0.429284
vt 0.058936 0.385312
vt 0.192509 0.352526
vt 0.775094 0.780582
vt 0.444612 0.216421
vt 0.540532 0.029544
vt 0.766276 0.397588
vt 0.792082 0.286147
vt 0.655845 0.237991
vt 0.470438 0.278023
vt 0.369012 0.507769
vt 0.866764 0.428680
vt 0.396025 0.360755
vt 0.252951 0.381024
vt 0.293067 0.426194
vt 0.219143 0.637110
vt 0.057349 0.604117
vt 0.024932 0.560526
vt 0.011713 0.494732
vt 0.098131 0.360722
vt 0.137447 0.349443
vt 0.735217 0.790476
vt 0.504256 0.219061
vt 0.714014 0.895750
vt 0.524786 0.065988
vt 0.799532 0.678225
vt 0.744341 0.907553
vt 0.761314 0.762057
vt 0.460665 0.243792
vt 0.848458 0.476954
vt 0.547236 0.215444
vt 0.774813 0.474960
vt 0.948526 0.396466
vt 0.587313 0.157755
vt 0.910250 0.395822
vt 0.583156 0.091409
vt 0.834078 0.397011
vt 0.487887 0.011946
vt 0.756521 0.653021
vt 0.442634 0.015429
vt 0.719722 0.285901
vt 0.387399 0.213010
vt 0.360923 0.321214
vt 0.923060 0.476446
vt 0.780057 0.350562
vt 0.772127 0.238353
vt 0.493629 0.525621
vt 0.421481 0.277995
vt 0.346263 0.458335
vt 0.366740 0.280298
vt 0.911290 0.432986
vt 0.356978 0.394218
vt 0.811895 0.430476
vt 0.448162 0.349752
vt 0.591819 0.378826
vt 0.369808 0.442310
vt 0.310891 0.470660
vt 0.299851 0.562669
vt 0.153617 0.646235
vt 0.575453 0.420426
vt 0.384600 0.400920
vt 0.527580 0.659433
vt 0.182338 0.456720
vt 0.859380 0.091975
vt 0.766146 0.845400
vt 0.713410 0.808862
vt 0.782652 0.909839
vt 0.756072 0.682980
vt 0.436426 0.046332
vt 0.782572 0.428985
vt 0.927717 0.349330
vt 0.503002 0.371169
vt 0.874838 0.350185
vt 0.532472 0.420255
vt 0.812832 0.349661
vt 0.525643 0.484187
vt 0.669431 0.619867
vt 0.506099 0.470902
vt 0.703684 0.786982
vt 0.789173 0.887425
vt 0.545963 0.169782
vt 0.634867 0.493523
vt 0.471537 0.380604
vt 0.670236 0.676565
vt 0.464691 0.510739
vt 0.627227 0.720228
vt 0.409481 0.508562
vt 0.618285 0.357853
vt 0.379146 0.481987
vt 0.570395 0.718523
vt 0.214514 0.503191
vt 0.714741 0.845070
vt 0.779871 0.953581
vt 0.201385 0.541460
vt 0.750758 0.953436
vt 0.160946 0.558247
vt 0.724895 0.949908
vt 0.790232 0.733709
vt 0.114160 0.533048
vt 0.746358 0.736179
vt 0.948057 0.092358
vt 0.106453 0.484808
vt 0.923317 0.090876
vt 0.132016 0.453741
vt 0.885036 0.093179
vt 0.861390 0.046936
vt 0.794048 0.792000
vt 0.370017 0.064472
vt 0.639115 0.283916
vt 0.478888 0.319447
vt 0.717567 0.680699
vt 0.939297 0.037388
vt 0.400862 0.090727
vt 0.353666 0.135478
vt 0.426566 0.319577
vt 0.879617 0.034407
vt 0.804162 0.772326
vt 0.404268 0.180864
vt 0.707344 0.237173
vt 0.424950 0.537074
vt 0.590127 0.466117
vt 0.426286 0.376394
vt 0.546571 0.598418
vt 0.680805 0.484247
vt 0.504426 0.415697
vt 0.617384 0.579646
s 1
usemtl joystick
f 45/85/1 62/127/2 61/124/3
f 62/129/2 43/80/4 46/87/5
f 47/89/6 62/129/2 46/87/5
f 62/129/2 47/89/6 48/93/7
f 36/63/8 48/91/7 32/58/9
f 6/6/10 11/17/11 37/66/12
f 37/66/12 12/18/13 49/94/14
f 12/18/13 37/66/12 11/17/11
f 33/60/15 1/1/16 49/94/14
f 33/60/15 49/94/14 12/18/13
f 1/1/16 34/61/17 49/94/14
f 50/97/18 49/94/14 34/61/17
f 2/2/19 50/97/18 34/61/17
f 2/2/19 13/19/20 51/99/21
f 50/97/18 2/2/19 51/99/21
f 35/62/22 51/99/21 13/19/20
f 35/62/22 3/3/23 52/102/24
f 51/99/21 35/62/22 52/102/24
f 3/3/23 14/20/25 52/102/24
f 15/21/26 52/102/24 14/20/25
f 15/21/26 16/22/27 52/102/24
f 53/105/28 52/102/24 16/22/27
f 16/22/27 4/4/29 53/105/28
f 5/5/30 53/105/28 4/4/29
f 5/5/30 17/23/31 54/107/32
f 53/105/28 5/5/30 54/107/32
f 18/24/33 6/6/10 37/66/12
f 37/66/12 54/107/32 18/24/33
f 17/23/31 18/24/33 54/107/32
f 55/110/34 19/25/35 7/7/36
f 38/69/37 19/25/35 37/68/12
f 37/68/12 49/95/14 38/69/37
f 19/25/35 38/69/37 44/82/38
f 21/30/39 38/70/37 49/96/14
f 21/30/39 49/96/14 50/98/18
f 51/100/21 21/30/39 50/98/18
f 21/30/39 51/100/21 20/27/40
f 51/101/21 52/103/24 39/71/41
f 39/71/41 20/29/40 51/101/21
f 39/71/41 52/103/24 57/114/42
f 52/104/24 53/106/28 57/115/42
f 59/119/43 57/115/42 53/106/28
f 53/106/28 54/108/32 59/119/43
f 55/109/34 59/119/43 54/108/32
f 54/108/32 37/67/12 55/109/34
f 19/25/35 55/110/34 37/68/12
f 7/7/36 19/25/35 22/31/44
f 23/34/45 22/32/44 19/26/35
f 19/26/35 44/84/38 23/34/45
f 24/37/46 23/34/45 44/84/38
f 38/70/37 21/30/39 44/83/38
f 20/27/40 44/83/38 21/30/39
f 44/84/38 20/28/40 25/39/47
f 25/39/47 24/37/46 44/84/38
f 8/9/48 25/39/47 20/28/40
f 26/41/49 8/9/48 20/28/40
f 20/29/40 39/71/41 26/42/49
f 39/72/41 57/116/42 56/111/50
f 39/72/41 56/111/50 26/43/49
f 58/117/51 56/111/50 57/116/42
f 57/116/42 59/121/43 58/117/51
f 27/45/52 58/117/51 59/121/43
f 7/7/36 59/120/43 55/110/34
f 59/121/43 7/8/36 22/32/44
f 22/32/44 27/45/52 59/121/43
f 31/56/53 10/15/54 22/33/44
f 22/33/44 23/35/45 31/56/53
f 40/73/55 31/56/53 23/35/45
f 23/36/45 24/38/46 40/74/55
f 41/76/56 40/74/55 24/38/46
f 25/40/47 41/76/56 24/38/46
f 41/76/56 25/40/47 42/78/57
f 8/10/48 42/78/57 25/40/47
f 42/78/57 8/10/48 28/48/58
f 26/44/49 28/49/58 8/11/48
f 60/122/59 28/49/58 26/44/49
f 56/112/50 60/122/59 26/44/49
f 60/122/59 56/112/50 9/12/60
f 58/118/51 9/13/60 56/113/50
f 9/13/60 58/118/51 29/51/61
f 58/118/51 27/46/52 29/51/61
f 30/53/62 29/51/61 27/46/52
f 22/33/44 10/15/54 27/47/52
f 10/15/54 30/54/62 27/47/52
f 46/88/5 60/123/59 47/90/6
f 28/50/58 60/123/59 46/88/5
f 60/123/59 9/14/60 47/90/6
f 9/14/60 29/52/61 32/59/9
f 10/16/54 31/57/53 61/125/3
f 45/86/1 61/125/3 31/57/53
f 31/57/53 40/75/55 62/128/2
f 31/57/53 62/128/2 45/86/1
f 41/77/56 62/128/2 40/75/55
f 43/81/4 62/128/2 41/77/56
f 41/77/56 42/79/57 43/81/4
f 46/88/5 43/81/4 42/79/57
f 42/79/57 28/50/58 46/88/5
f 47/90/6 9/14/60 48/92/7
f 32/59/9 48/92/7 9/14/60
f 36/64/8 32/59/9 29/52/61
f 29/52/61 30/55/62 36/64/8
f 30/55/62 10/16/54 61/125/3
f 36/64/8 30/55/62 61/125/3
f 62/129/2 36/65/8 61/126/3
f 48/93/7 36/65/8 62/129/2
