# Blender 3.2.2
# www.blender.org
mtllib shoulder.mtl
o shoulder
v -0.010700 0.000620 -0.005624
v -0.010708 -0.000317 0.004827
v 0.009897 0.006744 0.004610
v 0.009886 0.007522 -0.004163
v 0.010703 0.000624 -0.005635
v -0.010225 0.006114 0.004564
v -0.000036 0.007653 0.004687
v -0.010231 0.006877 -0.004228
v 0.010692 -0.000291 0.004856
v 0.000219 0.008434 -0.004102
vn 0.6297 -0.4498 -0.6334
vn 0.6284 -0.5536 0.5465
vn -0.6179 -0.5644 0.5474
vn -0.6175 -0.4587 -0.6389
vn 0.5895 0.6495 -0.4802
vn -0.0179 0.8191 -0.5734
vn -0.0224 0.7069 0.7070
vn 0.5898 0.5548 0.5868
vn -0.6185 0.5283 0.5817
vn -0.6198 0.6216 -0.4791
vt 0.737364 0.253942
vt 0.978424 0.796066
vt 0.733401 0.695008
vt 0.734686 0.357129
vt 0.876313 0.798282
vt 0.713172 0.918319
vt 0.959680 0.491613
vt 0.836652 0.736794
vt 0.499916 0.847177
vt 0.959810 0.578150
vt 0.952411 0.627494
vt 0.750013 0.739156
vt 0.963241 0.257980
vt 0.743976 0.805728
vt 0.962332 0.694126
vt 0.880737 0.736002
vt 0.711132 0.855650
vt 0.744716 0.489969
vt 0.849956 0.491722
vt 0.612683 0.842252
vt 0.970581 0.736006
vt 0.744186 0.576957
vt 0.749543 0.629538
vt 0.962384 0.356992
vt 0.844479 0.807123
vt 0.490442 0.918091
vt 0.858017 0.575836
vt 0.859836 0.619866
s 1
usemtl rumble
f 5/13/1 9/24/2 2/4/3
f 2/4/3 1/1/4 5/13/1
f 4/10/5 10/27/6 7/19/7
f 7/19/7 3/7/8 4/10/5
f 4/11/5 5/15/1 10/28/6
f 6/16/9 8/21/10 1/2/4
f 1/2/4 2/5/3 6/16/9
f 2/6/3 9/26/2 7/20/7
f 7/20/7 6/17/9 2/6/3
f 3/8/8 9/25/2 5/14/1
f 3/8/8 5/14/1 4/12/5
f 8/22/10 7/19/7 10/27/6
f 7/19/7 8/22/10 6/18/9
f 5/15/1 1/3/4 10/28/6
f 10/28/6 1/3/4 8/23/10
f 3/9/8 7/20/7 9/26/2
