# Blender 3.2.2
# www.blender.org
mtllib start.mtl
o Start
v 0.005301 0.000779 0.003748
v 0.004718 0.000900 0.004331
v 0.004734 0.001495 0.003748
v 0.005128 0.000812 0.004161
v 0.005058 0.001170 0.004085
v 0.004726 0.001318 0.004161
v 0.005138 0.001233 0.003748
v -0.004734 0.003708 0.003748
v -0.004718 0.003106 0.004331
v -0.005301 0.003258 0.003748
v -0.004726 0.003528 0.004161
v -0.005058 0.003534 0.004085
v -0.005128 0.003209 0.004161
v -0.005138 0.003635 0.003748
v 0.005301 -0.000779 0.003748
v 0.004734 -0.001495 0.003748
v 0.004718 -0.000900 0.004331
v 0.005138 -0.001233 0.003748
v 0.005058 -0.001170 0.004085
v 0.004726 -0.001318 0.004161
v 0.005128 -0.000812 0.004161
v -0.005301 -0.003258 0.003748
v -0.004718 -0.003106 0.004331
v -0.004734 -0.003708 0.003748
v -0.005128 -0.003209 0.004161
v -0.005058 -0.003534 0.004085
v -0.004726 -0.003528 0.004161
v -0.005138 -0.003635 0.003748
v 0.004734 -0.001495 -0.000140
v 0.005301 -0.000779 -0.000140
v 0.005135 -0.001231 -0.000140
v 0.005301 0.000779 -0.000140
v 0.004734 0.001495 -0.000140
v 0.005135 0.001231 -0.000140
v -0.004734 0.003708 -0.000140
v -0.005301 0.003258 -0.000140
v -0.005135 0.003631 -0.000140
v -0.005301 -0.003258 -0.000140
v -0.004734 -0.003708 -0.000140
v -0.005135 -0.003631 -0.000140
vn 0.2276 0.9738 -0.0000
vn 0.2276 -0.9738 -0.0000
vn -0.0000 -0.0000 1.0000
vn -1.0000 -0.0000 -0.0000
vn 0.9031 0.2884 0.3181
vn 0.3870 0.3070 0.8695
vn 0.4864 0.8137 0.3181
vn -0.1204 0.9246 0.3615
vn -0.2553 0.3219 0.9117
vn -0.8729 0.3277 0.3615
vn 0.9031 -0.2884 0.3181
vn 0.4864 -0.8137 0.3181
vn 0.3870 -0.3070 0.8695
vn -0.8729 -0.3277 0.3615
vn -0.2553 -0.3219 0.9117
vn -0.1204 -0.9246 0.3615
vn 0.3852 -0.0000 0.9228
vn 0.9214 -0.0000 0.3887
vn 0.0877 0.3751 0.9228
vn 0.2097 0.8972 0.3887
vn -0.3852 -0.0000 0.9228
vn -0.9214 -0.0000 0.3887
vn 0.0877 -0.3751 0.9228
vn 0.2097 -0.8972 0.3887
vn -0.1828 -0.9832 -0.0006
vn -0.9157 -0.4018 -0.0006
vn -0.1828 0.9832 -0.0006
vn -0.9157 0.4018 -0.0006
vn 0.5470 0.8371 -0.0005
vn 0.9397 0.3421 -0.0005
vn 0.5470 -0.8371 -0.0005
vn 0.9397 -0.3421 -0.0005
vn 1.0000 -0.0000 -0.0000
vt 0.000000 0.213993
vt 0.055000 0.186771
vt 0.053556 0.000000
vt 0.000000 0.201955
vt 0.005906 0.023600
vt 0.050544 0.000000
vt 0.000000 0.000000
vt 0.946444 0.000000
vt 0.945000 0.085754
vt 1.000000 0.075915
vt 0.941987 0.000000
vt 0.990613 0.013306
vt 1.000000 0.082232
vt 1.000000 0.000000
vt 0.000000 0.786007
vt 0.053556 1.000000
vt 0.055000 0.813230
vt 0.000000 1.000000
vt 0.005906 0.976400
vt 0.050544 1.000000
vt 0.000000 0.798045
vt 1.000000 0.924085
vt 0.945000 0.914246
vt 0.946443 1.000000
vt 1.000000 0.917768
vt 0.990613 0.986694
vt 0.941987 1.000000
vt 1.000000 1.000000
vt 0.053556 1.000000
vt 0.000000 0.786007
vt 0.000000 1.000000
vt 0.000000 0.213993
vt 0.053556 0.000000
vt 0.000000 0.000000
vt 0.946443 0.000000
vt 1.000000 0.075915
vt 1.000000 0.000000
vt 1.000000 0.924085
vt 0.946443 1.000000
vt 1.000000 1.000000
s 0
f 3/3/1 33/33/1 35/35/1 8/8/1
f 24/24/2 39/39/2 29/29/2 16/16/2
f 2/2/3 9/9/3 23/23/3 17/17/3
f 10/10/4 36/36/4 38/38/4 22/22/4
f 1/1/5 7/7/5 5/5/5 4/4/5
f 2/2/6 4/4/6 5/5/6 6/6/6
f 3/3/7 6/6/7 5/5/7 7/7/7
f 8/8/8 14/14/8 12/12/8 11/11/8
f 9/9/9 11/11/9 12/12/9 13/13/9
f 10/10/10 13/13/10 12/12/10 14/14/10
f 15/15/11 21/21/11 19/19/11 18/18/11
f 16/16/12 18/18/12 19/19/12 20/20/12
f 17/17/13 20/20/13 19/19/13 21/21/13
f 22/22/14 28/28/14 26/26/14 25/25/14
f 23/23/15 25/25/15 26/26/15 27/27/15
f 24/24/16 27/27/16 26/26/16 28/28/16
f 17/17/17 21/21/17 4/4/17 2/2/17
f 21/21/18 15/15/18 1/1/18 4/4/18
f 2/2/19 6/6/19 11/11/19 9/9/19
f 6/6/20 3/3/20 8/8/20 11/11/20
f 9/9/21 13/13/21 25/25/21 23/23/21
f 13/13/22 10/10/22 22/22/22 25/25/22
f 23/23/23 27/27/23 20/20/23 17/17/23
f 27/27/24 24/24/24 16/16/24 20/20/24
f 24/24/25 28/28/25 40/40/25 39/39/25
f 28/28/26 22/22/26 38/38/26 40/40/26
f 35/35/27 37/37/27 14/14/27 8/8/27
f 37/37/28 36/36/28 10/10/28 14/14/28
f 3/3/29 7/7/29 34/34/29 33/33/29
f 7/7/30 1/1/30 32/32/30 34/34/30
f 29/29/31 31/31/31 18/18/31 16/16/31
f 31/31/32 30/30/32 15/15/32 18/18/32
f 15/15/33 30/30/33 32/32/33 1/1/33
