# Blender 3.2.2
# www.blender.org
mtllib trigger.mtl
o trigger
v -0.009776 0.014622 -0.013407
v 0.005457 0.019263 -0.019631
v -0.009701 0.014565 -0.001605
v -0.006350 0.010599 -0.000695
v 0.005746 0.000067 -0.000230
v -0.005625 0.000067 -0.000191
v 0.005737 0.000066 -0.010463
v 0.005228 0.011896 0.000176
v 0.009766 0.014589 -0.002328
v 0.009030 0.014649 -0.000219
v -0.000320 0.014696 -0.021538
v 0.009683 0.019714 -0.001222
v 0.009784 0.018283 -0.008545
v -0.009784 0.019630 -0.002104
v -0.007746 0.013337 -0.000526
v -0.003166 0.010744 -0.015044
v 0.006901 0.012089 -0.010933
v -0.005864 0.000067 -0.010121
v -0.005072 0.019306 -0.019902
v 0.001291 0.019514 -0.005560
v -0.000404 0.018120 -0.015207
v -0.007673 0.013237 -0.012356
v 0.001847 0.000067 -0.014669
v -0.002321 0.000067 -0.014317
v 0.001390 0.008766 -0.015052
v -0.006204 0.009857 -0.010318
v 0.008358 0.019611 0.000062
v 0.007927 0.013530 -0.000574
v -0.004026 0.012997 -0.016406
v 0.003719 0.009895 -0.014059
v -0.001669 0.006603 -0.014871
v -0.000620 0.012693 -0.017379
v 0.002651 0.012804 -0.016987
v -0.005617 0.010910 0.000019
v 0.006039 0.007840 -0.010024
v -0.000012 0.019552 -0.021683
v -0.009057 0.018399 -0.014802
v 0.005232 0.014701 -0.019924
v -0.004378 0.014753 -0.020361
v -0.007907 0.014674 -0.017118
v -0.008778 0.019660 -0.000026
v -0.008590 0.014562 0.000017
v 0.009415 0.018264 -0.013899
v -0.009827 0.018115 -0.009802
v 0.006273 0.010419 -0.000571
v 0.009752 0.014650 -0.013912
v 0.006542 0.013041 -0.013757
vn 0.2664 0.6302 0.7293
vn 0.7160 0.6470 0.2621
vn 0.0106 0.9953 -0.0965
vn 0.4764 0.7135 -0.5138
vn 0.0118 0.7160 -0.6980
vn 0.0005 0.9981 0.0613
vn 0.7147 0.6624 -0.2245
vn 0.8789 -0.4627 0.1159
vn 0.6499 -0.3211 0.6889
vn 0.8640 -0.4019 -0.3032
vn 0.5049 -0.4743 -0.7212
vn -0.0116 -0.5053 -0.8628
vn -0.4395 0.7243 -0.5312
vn -0.4281 -0.5030 -0.7508
vn -0.6973 -0.4709 -0.5404
vn -0.6882 0.6827 -0.2455
vn -0.7831 0.6154 -0.0902
vn -0.8773 -0.4300 -0.2133
vn -0.4284 0.6123 0.6645
vn -0.5217 -0.2546 0.8143
vn 0.1713 -0.0687 0.9828
vn 0.7712 0.6301 -0.0904
vn -0.7468 0.6558 0.1108
vn -0.8751 -0.4218 0.2372
vn 0.6678 -0.6725 0.3190
vn 0.5138 -0.7695 -0.3795
vn 0.2870 -0.7517 -0.5938
vn 0.7933 -0.5787 -0.1892
vn 0.6640 -0.3231 -0.6744
vn -0.7528 -0.6305 0.1892
vn -0.2962 -0.0979 0.9501
vn -0.8801 -0.2355 0.4123
vn -0.6234 -0.7533 -0.2097
vn -0.0988 -0.7651 -0.6363
vn -0.3633 -0.7332 -0.5748
vn 0.1957 -0.2461 -0.9493
vn -0.5023 -0.4757 -0.7221
vn 0.8421 -0.1841 0.5069
vn -0.9145 -0.2903 -0.2819
vn 0.9605 -0.1135 -0.2540
vn 0.7244 -0.0540 0.6872
vn -0.7057 -0.0639 0.7056
vn 0.9372 -0.0588 -0.3438
vn 0.3586 -0.0836 -0.9298
vn -0.9411 -0.0490 -0.3345
vn -0.3733 -0.0760 -0.9246
vn -0.4760 -0.0489 -0.8781
vt 0.337568 0.401589
vt 0.506351 0.334592
vt 0.035536 0.421480
vt 0.459425 0.208310
vt 0.916951 0.150494
vt 0.455218 0.404380
vt 0.504934 0.439176
vt 0.462586 0.362034
vt 0.306984 0.686412
vt 0.271958 0.010127
vt 0.417117 0.686395
vt 0.468471 0.254827
vt 0.372393 0.012993
vt 0.301551 0.567048
vt 0.265299 0.087708
vt 0.285327 0.160293
vt 0.267395 0.160740
vt 0.267826 0.537316
vt 0.870508 0.196055
vt 0.605741 0.256268
vt 0.216074 0.460610
vt 0.273616 0.208035
vt 0.141476 0.464523
vt 0.349090 0.199072
vt 0.196671 0.254153
vt 0.449229 0.449547
vt 0.441280 0.551619
vt 0.464898 0.389117
vt 0.848888 0.856549
vt 0.323155 0.362704
vt 0.373485 0.135299
vt 0.370622 0.253781
vt 0.829979 0.150454
vt 0.271625 0.447295
vt 0.029793 0.303478
vt 0.170284 0.375161
vt 0.078216 0.357336
vt 0.520318 0.343253
vt 0.348205 0.387003
vt 0.407792 0.014003
vt 0.741965 0.899645
vt 0.742128 0.861096
vt 0.332762 0.253370
vt 0.410171 0.074016
vt 0.828219 0.897773
vt 0.365540 0.351422
vt 0.273417 0.487517
vt 0.262947 0.208942
vt 0.226436 0.447626
vt 0.276189 0.546959
vt 0.270574 0.147193
vt 0.866998 0.847085
vt 0.561504 0.306864
vt 0.316068 0.378271
vt 0.845351 0.914994
vt 0.404773 0.114998
vt 0.810222 0.867750
vt 0.326931 0.333554
vt 0.589625 0.289279
vt 0.865082 0.874915
vt 0.419194 0.136324
vt 0.639536 0.301735
vt 0.866927 0.910512
vt 0.422479 0.578331
vt 0.470735 0.361969
vt 0.368935 0.091586
vt 0.873685 0.149158
vt 0.012407 0.360023
vt 0.318829 0.439877
vt 0.079230 0.264243
vt 0.460825 0.169163
vt 0.912328 0.194989
vt 0.658109 0.272468
vt 0.827542 0.193515
vt 0.266479 0.405606
vt 0.564249 0.264453
vt 0.296745 0.405547
vt 0.529965 0.291998
vt 0.453487 0.488626
vt 0.224680 0.266492
vt 0.465719 0.453395
vt 0.453086 0.537122
vt 0.468318 0.405155
vt 0.091349 0.457874
vt 0.403385 0.199312
vt 0.371683 0.439244
vt 0.137057 0.254089
vt 0.295648 0.568965
vt 0.270536 0.116504
vt 0.401415 0.165093
vt 0.705920 0.336287
vt 0.384665 0.154256
vt 0.675081 0.329222
vt 0.400644 0.144941
s 1
usemtl rumble
f 27/49/1 12/21/2 20/36/3
f 2/3/4 36/68/5 21/37/6
f 43/84/7 2/3/4 21/37/6
f 9/16/8 12/22/2 10/17/9
f 2/4/4 43/85/7 46/90/10
f 46/90/10 38/71/11 2/4/4
f 38/72/11 11/19/12 36/67/5
f 2/5/4 38/72/11 36/67/5
f 19/33/13 36/67/5 39/74/14
f 39/74/14 36/67/5 11/19/12
f 39/75/14 40/77/15 19/34/13
f 37/69/16 19/34/13 40/77/15
f 44/86/17 37/69/16 1/1/18
f 40/77/15 1/1/18 37/69/16
f 41/79/19 42/82/20 27/47/1
f 8/14/21 27/47/1 42/82/20
f 8/14/21 10/18/9 27/47/1
f 27/48/1 10/17/9 12/22/2
f 13/23/22 21/37/6 12/21/2
f 12/21/2 21/37/6 20/36/3
f 20/36/3 41/80/19 27/49/1
f 41/80/19 20/36/3 14/25/23
f 46/90/10 13/24/22 9/16/8
f 13/24/22 12/22/2 9/16/8
f 3/6/24 42/83/20 41/81/19
f 41/81/19 14/26/23 3/6/24
f 14/25/23 21/37/6 44/87/17
f 21/37/6 14/25/23 20/36/3
f 1/1/18 3/6/24 14/26/23
f 14/26/23 44/86/17 1/1/18
f 43/84/7 21/37/6 13/23/22
f 37/70/16 44/87/17 21/37/6
f 13/24/22 46/90/10 43/85/7
f 21/37/6 36/68/5 19/35/13
f 21/37/6 19/35/13 37/70/16
f 9/16/8 10/17/9 28/51/25
f 47/93/26 33/62/27 38/73/11
f 38/73/11 46/91/10 47/93/26
f 17/31/28 30/56/29 47/94/26
f 33/61/27 47/94/26 30/56/29
f 15/27/30 34/64/31 42/82/20
f 4/8/32 34/65/31 15/28/30
f 1/2/18 40/78/15 22/38/33
f 40/78/15 39/76/14 32/59/34
f 32/59/34 29/53/35 40/78/15
f 33/62/27 32/59/34 11/20/12
f 39/76/14 11/20/12 32/59/34
f 25/45/36 16/29/37 32/60/34
f 32/60/34 16/29/37 29/52/35
f 8/14/21 28/50/25 10/18/9
f 8/14/21 45/88/38 28/50/25
f 11/20/12 38/73/11 33/62/27
f 30/55/29 25/45/36 33/63/27
f 32/60/34 33/63/27 25/45/36
f 8/14/21 42/82/20 34/64/31
f 22/38/33 40/78/15 29/53/35
f 22/39/33 29/54/35 16/30/37
f 16/30/37 26/46/39 22/39/33
f 42/83/20 3/6/24 15/28/30
f 28/51/25 17/31/28 46/92/10
f 46/92/10 9/16/8 28/51/25
f 22/39/33 15/28/30 3/6/24
f 22/39/33 4/8/32 15/28/30
f 17/31/28 28/51/25 45/89/38
f 3/7/24 1/2/18 22/38/33
f 26/46/39 4/8/32 22/39/33
f 17/31/28 47/94/26 46/92/10
f 35/66/40 45/89/38 5/10/41
f 8/14/21 6/11/42 5/9/41
f 8/14/21 34/64/31 6/11/42
f 30/56/29 17/31/28 35/66/40
f 30/56/29 35/66/40 7/13/43
f 7/13/43 23/40/44 30/56/29
f 4/8/32 26/46/39 18/32/45
f 16/29/37 25/45/36 31/57/46
f 23/41/44 24/42/47 31/57/46
f 8/15/21 5/10/41 45/89/38
f 25/44/36 30/56/29 23/40/44
f 31/57/46 25/45/36 23/41/44
f 31/58/46 26/46/39 16/30/37
f 24/43/47 18/32/45 26/46/39
f 26/46/39 31/58/46 24/43/47
f 34/65/31 4/8/32 6/12/42
f 5/10/41 7/13/43 35/66/40
f 18/32/45 6/12/42 4/8/32
f 17/31/28 45/89/38 35/66/40
